<svg width="112" height="131" viewBox="0 0 112 131" fill="none" xmlns="http://www.w3.org/2000/svg">
<path d="M68.8713 44.6111C81.1027 44.6111 91.0181 34.6957 91.0181 22.4644C91.0181 10.2331 81.1027 0.317627 68.8713 0.317627C56.64 0.317627 46.7246 10.2331 46.7246 22.4644C46.7246 34.6957 56.64 44.6111 68.8713 44.6111Z" fill="#FF42B3"/>
<path d="M68.8714 55.6845C46.7022 55.6845 28.7305 73.6562 28.7305 95.8254H109.012C109.012 73.6562 91.0407 55.6845 68.8714 55.6845Z" fill="#FF42B3"/>
<g filter="url(#filter0_b_590_229)">
<path d="M62.5982 22.4642C62.5982 34.4194 52.9066 44.111 40.9514 44.111C28.9963 44.111 19.3047 34.4194 19.3047 22.4642C19.3047 10.5091 28.9963 0.817505 40.9514 0.817505C52.9066 0.817505 62.5982 10.5091 62.5982 22.4642Z" fill="url(#paint0_linear_590_229)" stroke="white"/>
<path d="M80.5894 95.3254H1.31364C1.5814 73.6627 19.2253 56.1844 40.9515 56.1844C62.6777 56.1844 80.3216 73.6627 80.5894 95.3254Z" fill="url(#paint1_linear_590_229)" stroke="white"/>
</g>
<g filter="url(#filter1_b_590_229)">
<rect x="1.81055" y="107.852" width="108.31" height="21.951" rx="10.9755" stroke="url(#paint2_linear_590_229)" stroke-width="2"/>
</g>
<g filter="url(#filter2_b_590_229)">
<circle cx="98.5451" cy="118.828" r="6.59782" fill="url(#paint3_linear_590_229)"/>
</g>
<defs>
<filter id="filter0_b_590_229" x="-29.1895" y="-29.6825" width="140.281" height="155.508" filterUnits="userSpaceOnUse" color-interpolation-filters="sRGB">
<feFlood flood-opacity="0" result="BackgroundImageFix"/>
<feGaussianBlur in="BackgroundImage" stdDeviation="15"/>
<feComposite in2="SourceAlpha" operator="in" result="effect1_backgroundBlur_590_229"/>
<feBlend mode="normal" in="SourceGraphic" in2="effect1_backgroundBlur_590_229" result="shape"/>
</filter>
<filter id="filter1_b_590_229" x="-29.1895" y="76.8522" width="170.311" height="83.951" filterUnits="userSpaceOnUse" color-interpolation-filters="sRGB">
<feFlood flood-opacity="0" result="BackgroundImageFix"/>
<feGaussianBlur in="BackgroundImage" stdDeviation="15"/>
<feComposite in2="SourceAlpha" operator="in" result="effect1_backgroundBlur_590_229"/>
<feBlend mode="normal" in="SourceGraphic" in2="effect1_backgroundBlur_590_229" result="shape"/>
</filter>
<filter id="filter2_b_590_229" x="61.9473" y="82.23" width="73.1953" height="73.1956" filterUnits="userSpaceOnUse" color-interpolation-filters="sRGB">
<feFlood flood-opacity="0" result="BackgroundImageFix"/>
<feGaussianBlur in="BackgroundImage" stdDeviation="15"/>
<feComposite in2="SourceAlpha" operator="in" result="effect1_backgroundBlur_590_229"/>
<feBlend mode="normal" in="SourceGraphic" in2="effect1_backgroundBlur_590_229" result="shape"/>
</filter>
<linearGradient id="paint0_linear_590_229" x1="40.9514" y1="-15.8274" x2="40.9514" y2="70.7993" gradientUnits="userSpaceOnUse">
<stop stop-color="white"/>
<stop offset="1" stop-color="white" stop-opacity="0"/>
</linearGradient>
<linearGradient id="paint1_linear_590_229" x1="40.9515" y1="41.0531" x2="40.9515" y2="119.559" gradientUnits="userSpaceOnUse">
<stop stop-color="white"/>
<stop offset="1" stop-color="white" stop-opacity="0"/>
</linearGradient>
<linearGradient id="paint2_linear_590_229" x1="55.9654" y1="96.0018" x2="55.9654" y2="154.024" gradientUnits="userSpaceOnUse">
<stop stop-color="white"/>
<stop offset="1" stop-color="white" stop-opacity="0"/>
</linearGradient>
<linearGradient id="paint3_linear_590_229" x1="98.5451" y1="101.937" x2="98.5451" y2="145.923" gradientUnits="userSpaceOnUse">
<stop stop-color="white"/>
<stop offset="1" stop-color="white" stop-opacity="0"/>
</linearGradient>
</defs>
</svg>
