<svg width="136" height="131" viewBox="0 0 136 131" fill="none" xmlns="http://www.w3.org/2000/svg">
<path d="M129.815 19.7119L129.818 19.7115C132.679 19.2773 135.195 21.447 135.122 24.1634C133.76 70.5394 116.909 97.0041 100.45 111.878C92.2141 119.32 84.0646 123.871 77.9775 126.561C74.9342 127.905 72.4072 128.784 70.6442 129.326C69.7627 129.597 69.0724 129.784 68.6041 129.903C68.3699 129.962 68.1913 130.005 68.0721 130.032C68.0439 130.038 68.0191 130.044 67.9976 130.049C67.9761 130.044 67.9512 130.038 67.9231 130.032C67.8039 130.004 67.6252 129.962 67.3911 129.903C66.9228 129.784 66.2324 129.597 65.351 129.325C63.5879 128.782 61.061 127.903 58.0176 126.557C51.9305 123.865 43.781 119.312 35.5452 111.868C19.0864 96.9909 2.23528 70.5263 0.872677 24.164C0.799286 21.4474 3.31586 19.2773 6.17706 19.7115L6.17969 19.7119C18.0053 21.4421 44.995 22.6642 64.6296 2.48094L64.6317 2.47881C66.4499 0.587629 69.5727 0.587629 71.3909 2.47882L71.3927 2.48068C90.9999 22.6643 117.99 21.442 129.815 19.7119Z" fill="url(#paint0_linear_590_210)" stroke="white"/>
<g filter="url(#filter0_di_590_210)">
<ellipse cx="15.2625" cy="41.5567" rx="4.26841" ry="4.0838" fill="#673AB7"/>
</g>
<g filter="url(#filter1_di_590_210)">
<ellipse rx="4.26841" ry="4.0838" transform="matrix(-1 0 0 1 122.794 41.5569)" fill="#673AB7"/>
</g>
<g filter="url(#filter2_di_590_210)">
<ellipse cx="23.7977" cy="69.6442" rx="4.26841" ry="4.0838" fill="#673AB7"/>
</g>
<g filter="url(#filter3_di_590_210)">
<ellipse rx="4.26841" ry="4.0838" transform="matrix(-1 0 0 1 114.257 69.6442)" fill="#673AB7"/>
</g>
<g filter="url(#filter4_di_590_210)">
<ellipse cx="39.6532" cy="96.4829" rx="4.26841" ry="4.0838" fill="#673AB7"/>
</g>
<g filter="url(#filter5_di_590_210)">
<ellipse rx="4.26841" ry="4.0838" transform="matrix(-1 0 0 1 98.3996 96.4829)" fill="#673AB7"/>
</g>
<g filter="url(#filter6_di_590_210)">
<ellipse cx="66.6903" cy="118.265" rx="4.26841" ry="4.0838" fill="#673AB7"/>
</g>
<g filter="url(#filter7_d_590_210)">
<path d="M82.9511 61.6326C82.6657 60.7256 82.3193 59.9362 81.9126 59.2659C81.5061 58.5949 80.9238 57.9404 80.1647 57.3001C79.4066 56.6603 78.7245 56.1449 78.1198 55.7532C77.5154 55.3611 76.6851 54.9227 75.6295 54.4375C74.5748 53.9524 73.7391 53.5915 73.1239 53.3541C72.508 53.117 71.617 52.792 70.4515 52.3793C69.4181 52.0082 68.6487 51.7244 68.1425 51.5285C67.6369 51.3324 66.972 51.054 66.1474 50.6927C65.3231 50.332 64.7074 50.012 64.3005 49.7336C63.8938 49.4553 63.4596 49.1149 62.9978 48.7126C62.5359 48.3103 62.2117 47.8822 62.0246 47.4283C61.8381 46.9743 61.7445 46.479 61.7445 45.9426C61.7445 44.5399 62.4039 43.3944 63.7231 42.5075C65.0425 41.6206 66.7468 41.1769 68.8358 41.1769C69.7588 41.1769 70.6998 41.2954 71.6557 41.5329C72.6115 41.7704 73.4306 42.0379 74.1123 42.3373C74.7946 42.6367 75.4375 42.9669 76.0424 43.3277C76.6471 43.6889 77.0757 43.9621 77.3288 44.1478C77.5817 44.3336 77.7419 44.4573 77.8072 44.5193C78.0934 44.7256 78.3895 44.7976 78.6974 44.736C79.0271 44.7154 79.2802 44.5501 79.4565 44.2409L82.1285 39.7224C82.3922 39.3099 82.3377 38.9178 81.9636 38.5462C81.8315 38.4224 81.6672 38.2782 81.4679 38.113C81.2706 37.9478 80.8417 37.6487 80.1815 37.2152C79.522 36.782 78.8239 36.3951 78.0878 36.0547C77.3509 35.7145 76.3941 35.3687 75.2176 35.0181C74.0419 34.667 72.8267 34.43 71.5731 34.3063V28.8591C71.5731 28.5704 71.4743 28.333 71.277 28.1472C71.0792 27.9619 70.8262 27.8687 70.5179 27.8687H66.065C65.7792 27.8687 65.5319 27.9666 65.323 28.1627C65.1141 28.3588 65.0097 28.5908 65.0097 28.8591V34.4299C61.5575 35.0486 58.754 36.431 56.5992 38.5768C54.4446 40.7227 53.3669 43.2188 53.3669 46.0664C53.3669 46.9122 53.4607 47.7168 53.6476 48.4799C53.8343 49.2436 54.0653 49.9296 54.3402 50.5382C54.615 51.1472 55.0054 51.7453 55.5111 52.3335C56.0167 52.9214 56.4951 53.427 56.9457 53.8498C57.3966 54.2724 57.9848 54.711 58.7102 55.1648C59.436 55.619 60.0572 55.9855 60.574 56.2638C61.091 56.5413 61.778 56.8622 62.6353 57.2224C63.4928 57.5837 64.1692 57.8568 64.6639 58.0429C65.1587 58.2284 65.8348 58.4866 66.6926 58.816C67.8798 59.2493 68.7595 59.5847 69.3311 59.8221C69.9032 60.0595 70.6286 60.3895 71.5086 60.8125C72.3878 61.2351 73.0307 61.622 73.4378 61.9729C73.8446 62.3238 74.2127 62.7571 74.5428 63.2728C74.8728 63.7884 75.0381 64.3352 75.0381 64.9132C75.0381 66.5432 74.362 67.8015 73.0093 68.688C71.6573 69.5754 70.0901 70.019 68.3093 70.019C67.4965 70.019 66.6823 69.937 65.8691 69.772C63.0106 69.2349 60.3392 67.9453 57.8545 65.9029L57.7886 65.841C57.5906 65.6146 57.3266 65.5216 56.9971 65.5631C56.6453 65.6043 56.3923 65.7282 56.2385 65.9349L52.8412 70.1127C52.5113 70.5252 52.5336 70.9481 52.9073 71.3814C53.0174 71.5053 53.2098 71.6914 53.4845 71.9386C53.7599 72.1867 54.2712 72.5729 55.0184 73.1001C55.7658 73.6265 56.5794 74.121 57.4591 74.5858C58.3387 75.0498 59.4544 75.5087 60.8069 75.9628C62.1594 76.4161 63.5608 76.7358 65.0121 76.9214V82.3373C65.0121 82.606 65.1167 82.8378 65.3254 83.034C65.5344 83.2303 65.7816 83.3279 66.0674 83.3279H70.5203C70.8286 83.3279 71.0816 83.2352 71.2793 83.0498C71.4769 82.8643 71.5754 82.6269 71.5754 82.3375V76.9215C75.0721 76.3851 77.914 74.9769 80.1016 72.6969C82.2893 70.417 83.3835 67.6986 83.3835 64.5421C83.3824 63.5107 83.2397 62.541 82.9511 61.6326Z" fill="#FF7777"/>
</g>
<defs>
<filter id="filter0_di_590_210" x="6.99414" y="37.4729" width="16.5371" height="16.1676" filterUnits="userSpaceOnUse" color-interpolation-filters="sRGB">
<feFlood flood-opacity="0" result="BackgroundImageFix"/>
<feColorMatrix in="SourceAlpha" type="matrix" values="0 0 0 0 0 0 0 0 0 0 0 0 0 0 0 0 0 0 127 0" result="hardAlpha"/>
<feOffset dy="4"/>
<feGaussianBlur stdDeviation="2"/>
<feComposite in2="hardAlpha" operator="out"/>
<feColorMatrix type="matrix" values="0 0 0 0 0 0 0 0 0 0 0 0 0 0 0 0 0 0 0.25 0"/>
<feBlend mode="normal" in2="BackgroundImageFix" result="effect1_dropShadow_590_210"/>
<feBlend mode="normal" in="SourceGraphic" in2="effect1_dropShadow_590_210" result="shape"/>
<feColorMatrix in="SourceAlpha" type="matrix" values="0 0 0 0 0 0 0 0 0 0 0 0 0 0 0 0 0 0 127 0" result="hardAlpha"/>
<feOffset dy="4"/>
<feGaussianBlur stdDeviation="2"/>
<feComposite in2="hardAlpha" operator="arithmetic" k2="-1" k3="1"/>
<feColorMatrix type="matrix" values="0 0 0 0 1 0 0 0 0 0.466667 0 0 0 0 0.466667 0 0 0 0.5 0"/>
<feBlend mode="normal" in2="shape" result="effect2_innerShadow_590_210"/>
</filter>
<filter id="filter1_di_590_210" x="114.525" y="37.4731" width="16.5371" height="16.1676" filterUnits="userSpaceOnUse" color-interpolation-filters="sRGB">
<feFlood flood-opacity="0" result="BackgroundImageFix"/>
<feColorMatrix in="SourceAlpha" type="matrix" values="0 0 0 0 0 0 0 0 0 0 0 0 0 0 0 0 0 0 127 0" result="hardAlpha"/>
<feOffset dy="4"/>
<feGaussianBlur stdDeviation="2"/>
<feComposite in2="hardAlpha" operator="out"/>
<feColorMatrix type="matrix" values="0 0 0 0 0 0 0 0 0 0 0 0 0 0 0 0 0 0 0.25 0"/>
<feBlend mode="normal" in2="BackgroundImageFix" result="effect1_dropShadow_590_210"/>
<feBlend mode="normal" in="SourceGraphic" in2="effect1_dropShadow_590_210" result="shape"/>
<feColorMatrix in="SourceAlpha" type="matrix" values="0 0 0 0 0 0 0 0 0 0 0 0 0 0 0 0 0 0 127 0" result="hardAlpha"/>
<feOffset dy="4"/>
<feGaussianBlur stdDeviation="2"/>
<feComposite in2="hardAlpha" operator="arithmetic" k2="-1" k3="1"/>
<feColorMatrix type="matrix" values="0 0 0 0 1 0 0 0 0 0.466667 0 0 0 0 0.466667 0 0 0 0.5 0"/>
<feBlend mode="normal" in2="shape" result="effect2_innerShadow_590_210"/>
</filter>
<filter id="filter2_di_590_210" x="15.5293" y="65.5604" width="16.5371" height="16.1676" filterUnits="userSpaceOnUse" color-interpolation-filters="sRGB">
<feFlood flood-opacity="0" result="BackgroundImageFix"/>
<feColorMatrix in="SourceAlpha" type="matrix" values="0 0 0 0 0 0 0 0 0 0 0 0 0 0 0 0 0 0 127 0" result="hardAlpha"/>
<feOffset dy="4"/>
<feGaussianBlur stdDeviation="2"/>
<feComposite in2="hardAlpha" operator="out"/>
<feColorMatrix type="matrix" values="0 0 0 0 0 0 0 0 0 0 0 0 0 0 0 0 0 0 0.25 0"/>
<feBlend mode="normal" in2="BackgroundImageFix" result="effect1_dropShadow_590_210"/>
<feBlend mode="normal" in="SourceGraphic" in2="effect1_dropShadow_590_210" result="shape"/>
<feColorMatrix in="SourceAlpha" type="matrix" values="0 0 0 0 0 0 0 0 0 0 0 0 0 0 0 0 0 0 127 0" result="hardAlpha"/>
<feOffset dy="4"/>
<feGaussianBlur stdDeviation="2"/>
<feComposite in2="hardAlpha" operator="arithmetic" k2="-1" k3="1"/>
<feColorMatrix type="matrix" values="0 0 0 0 1 0 0 0 0 0.466667 0 0 0 0 0.466667 0 0 0 0.5 0"/>
<feBlend mode="normal" in2="shape" result="effect2_innerShadow_590_210"/>
</filter>
<filter id="filter3_di_590_210" x="105.988" y="65.5604" width="16.5371" height="16.1676" filterUnits="userSpaceOnUse" color-interpolation-filters="sRGB">
<feFlood flood-opacity="0" result="BackgroundImageFix"/>
<feColorMatrix in="SourceAlpha" type="matrix" values="0 0 0 0 0 0 0 0 0 0 0 0 0 0 0 0 0 0 127 0" result="hardAlpha"/>
<feOffset dy="4"/>
<feGaussianBlur stdDeviation="2"/>
<feComposite in2="hardAlpha" operator="out"/>
<feColorMatrix type="matrix" values="0 0 0 0 0 0 0 0 0 0 0 0 0 0 0 0 0 0 0.25 0"/>
<feBlend mode="normal" in2="BackgroundImageFix" result="effect1_dropShadow_590_210"/>
<feBlend mode="normal" in="SourceGraphic" in2="effect1_dropShadow_590_210" result="shape"/>
<feColorMatrix in="SourceAlpha" type="matrix" values="0 0 0 0 0 0 0 0 0 0 0 0 0 0 0 0 0 0 127 0" result="hardAlpha"/>
<feOffset dy="4"/>
<feGaussianBlur stdDeviation="2"/>
<feComposite in2="hardAlpha" operator="arithmetic" k2="-1" k3="1"/>
<feColorMatrix type="matrix" values="0 0 0 0 1 0 0 0 0 0.466667 0 0 0 0 0.466667 0 0 0 0.5 0"/>
<feBlend mode="normal" in2="shape" result="effect2_innerShadow_590_210"/>
</filter>
<filter id="filter4_di_590_210" x="31.3848" y="92.3991" width="16.5371" height="16.1676" filterUnits="userSpaceOnUse" color-interpolation-filters="sRGB">
<feFlood flood-opacity="0" result="BackgroundImageFix"/>
<feColorMatrix in="SourceAlpha" type="matrix" values="0 0 0 0 0 0 0 0 0 0 0 0 0 0 0 0 0 0 127 0" result="hardAlpha"/>
<feOffset dy="4"/>
<feGaussianBlur stdDeviation="2"/>
<feComposite in2="hardAlpha" operator="out"/>
<feColorMatrix type="matrix" values="0 0 0 0 0 0 0 0 0 0 0 0 0 0 0 0 0 0 0.25 0"/>
<feBlend mode="normal" in2="BackgroundImageFix" result="effect1_dropShadow_590_210"/>
<feBlend mode="normal" in="SourceGraphic" in2="effect1_dropShadow_590_210" result="shape"/>
<feColorMatrix in="SourceAlpha" type="matrix" values="0 0 0 0 0 0 0 0 0 0 0 0 0 0 0 0 0 0 127 0" result="hardAlpha"/>
<feOffset dy="4"/>
<feGaussianBlur stdDeviation="2"/>
<feComposite in2="hardAlpha" operator="arithmetic" k2="-1" k3="1"/>
<feColorMatrix type="matrix" values="0 0 0 0 1 0 0 0 0 0.466667 0 0 0 0 0.466667 0 0 0 0.5 0"/>
<feBlend mode="normal" in2="shape" result="effect2_innerShadow_590_210"/>
</filter>
<filter id="filter5_di_590_210" x="90.1309" y="92.3991" width="16.5371" height="16.1676" filterUnits="userSpaceOnUse" color-interpolation-filters="sRGB">
<feFlood flood-opacity="0" result="BackgroundImageFix"/>
<feColorMatrix in="SourceAlpha" type="matrix" values="0 0 0 0 0 0 0 0 0 0 0 0 0 0 0 0 0 0 127 0" result="hardAlpha"/>
<feOffset dy="4"/>
<feGaussianBlur stdDeviation="2"/>
<feComposite in2="hardAlpha" operator="out"/>
<feColorMatrix type="matrix" values="0 0 0 0 0 0 0 0 0 0 0 0 0 0 0 0 0 0 0.25 0"/>
<feBlend mode="normal" in2="BackgroundImageFix" result="effect1_dropShadow_590_210"/>
<feBlend mode="normal" in="SourceGraphic" in2="effect1_dropShadow_590_210" result="shape"/>
<feColorMatrix in="SourceAlpha" type="matrix" values="0 0 0 0 0 0 0 0 0 0 0 0 0 0 0 0 0 0 127 0" result="hardAlpha"/>
<feOffset dy="4"/>
<feGaussianBlur stdDeviation="2"/>
<feComposite in2="hardAlpha" operator="arithmetic" k2="-1" k3="1"/>
<feColorMatrix type="matrix" values="0 0 0 0 1 0 0 0 0 0.466667 0 0 0 0 0.466667 0 0 0 0.5 0"/>
<feBlend mode="normal" in2="shape" result="effect2_innerShadow_590_210"/>
</filter>
<filter id="filter6_di_590_210" x="58.4219" y="114.181" width="16.5371" height="16.1676" filterUnits="userSpaceOnUse" color-interpolation-filters="sRGB">
<feFlood flood-opacity="0" result="BackgroundImageFix"/>
<feColorMatrix in="SourceAlpha" type="matrix" values="0 0 0 0 0 0 0 0 0 0 0 0 0 0 0 0 0 0 127 0" result="hardAlpha"/>
<feOffset dy="4"/>
<feGaussianBlur stdDeviation="2"/>
<feComposite in2="hardAlpha" operator="out"/>
<feColorMatrix type="matrix" values="0 0 0 0 0 0 0 0 0 0 0 0 0 0 0 0 0 0 0.25 0"/>
<feBlend mode="normal" in2="BackgroundImageFix" result="effect1_dropShadow_590_210"/>
<feBlend mode="normal" in="SourceGraphic" in2="effect1_dropShadow_590_210" result="shape"/>
<feColorMatrix in="SourceAlpha" type="matrix" values="0 0 0 0 0 0 0 0 0 0 0 0 0 0 0 0 0 0 127 0" result="hardAlpha"/>
<feOffset dy="4"/>
<feGaussianBlur stdDeviation="2"/>
<feComposite in2="hardAlpha" operator="arithmetic" k2="-1" k3="1"/>
<feColorMatrix type="matrix" values="0 0 0 0 1 0 0 0 0 0.466667 0 0 0 0 0.466667 0 0 0 0.5 0"/>
<feBlend mode="normal" in2="shape" result="effect2_innerShadow_590_210"/>
</filter>
<filter id="filter7_d_590_210" x="31.6094" y="17.8687" width="72.7734" height="97.4592" filterUnits="userSpaceOnUse" color-interpolation-filters="sRGB">
<feFlood flood-opacity="0" result="BackgroundImageFix"/>
<feColorMatrix in="SourceAlpha" type="matrix" values="0 0 0 0 0 0 0 0 0 0 0 0 0 0 0 0 0 0 127 0" result="hardAlpha"/>
<feOffset dy="11"/>
<feGaussianBlur stdDeviation="10.5"/>
<feComposite in2="hardAlpha" operator="out"/>
<feColorMatrix type="matrix" values="0 0 0 0 1 0 0 0 0 0.466667 0 0 0 0 0.466667 0 0 0 1 0"/>
<feBlend mode="normal" in2="BackgroundImageFix" result="effect1_dropShadow_590_210"/>
<feBlend mode="normal" in="SourceGraphic" in2="effect1_dropShadow_590_210" result="shape"/>
</filter>
<linearGradient id="paint0_linear_590_210" x1="67.9975" y1="-60.566" x2="67.9975" y2="173.936" gradientUnits="userSpaceOnUse">
<stop stop-color="white"/>
<stop offset="1" stop-color="white" stop-opacity="0"/>
</linearGradient>
</defs>
</svg>
