<svg width="132" height="131" viewBox="0 0 132 131" fill="none" xmlns="http://www.w3.org/2000/svg">
<path d="M91.5093 39.8329H40.0898V91.2913H91.5093V39.8329Z" fill="#59E0D8"/>
<path d="M91.5065 95.1728H40.0879C37.945 95.1728 36.207 93.4338 36.207 91.2891V39.8314C36.207 37.6869 37.9447 35.9476 40.0879 35.9476H91.5065C93.6494 35.9476 95.3873 37.6866 95.3873 39.8314V91.2891C95.3873 93.4341 93.6499 95.1728 91.5065 95.1728ZM43.9687 87.4053H87.626V43.7151H43.9687V87.4053Z" fill="#46FFF4"/>
<path d="M108.486 104.397H26.9908V26.7236H45.6183C46.2764 26.7236 46.8954 26.5582 47.4382 26.2693C49.1361 25.8549 50.3976 24.3268 50.3976 22.5004V4.44419C50.3976 2.2997 48.6599 0.560425 46.5168 0.560425C44.3739 0.560425 42.6359 2.29944 42.6359 4.44419V18.9564H23.1102C20.9673 18.9564 19.2294 20.6954 19.2294 22.8401V41.4818H4.72848C2.58535 41.4815 0.847656 43.2208 0.847656 45.3653C0.847656 47.5098 2.58535 49.249 4.72848 49.249H19.2296V61.6768H12.4947C10.3519 61.6768 8.6139 63.4158 8.6139 65.5606C8.6139 67.7053 10.3516 69.4443 12.4947 69.4443H19.2294V81.8721H4.72848C2.58535 81.8716 0.847656 83.6108 0.847656 85.7553C0.847656 87.8998 2.58535 89.6391 4.72848 89.6391H19.2296V108.281C19.2296 110.425 20.9673 112.164 23.1105 112.164H41.738V126.677C41.738 128.821 43.4757 130.56 45.6188 130.56C47.7617 130.56 49.4996 128.821 49.4996 126.677V112.164H61.9179V118.904C61.9179 121.049 63.6556 122.788 65.7988 122.788C67.9416 122.788 69.6796 121.049 69.6796 118.904V112.164H82.0979V126.677C82.0979 128.821 83.8356 130.56 85.9787 130.56C88.1218 130.56 89.8595 128.821 89.8595 126.677V112.164H108.487C110.63 112.164 112.368 110.425 112.368 108.281C112.368 106.136 110.629 104.397 108.486 104.397Z" fill="#46FFF4"/>
<g filter="url(#filter0_b_590_221)">
<path d="M127.767 81.8716H113.266V69.4438H120C122.143 69.4438 123.881 67.7048 123.881 65.56C123.881 63.4153 122.144 61.6763 120 61.6763H113.266V49.249H127.767C129.91 49.249 131.648 47.51 131.648 45.3653C131.648 43.2208 129.91 41.4815 127.767 41.4815H113.266V22.8401C113.266 20.6956 111.528 18.9564 109.385 18.9564H90.7575V4.44419C90.7575 2.2997 89.0198 0.560425 86.8767 0.560425C84.7336 0.560425 82.9964 2.2997 82.9964 4.44419V18.9564H70.5781V12.2166C70.5781 10.0721 68.8404 8.33282 66.6972 8.33282C64.5541 8.33282 62.8164 10.0718 62.8164 12.2166V22.5001C62.8164 22.5576 62.8225 22.6136 62.8248 22.6701C62.8225 22.7269 62.8164 22.7829 62.8164 22.8401C62.8164 24.9846 64.5541 26.7239 66.6972 26.7239H105.504V83.8095C105.139 84.3824 104.945 85.0456 104.945 85.7556C104.945 87.9001 106.683 89.6394 108.826 89.6394H126.868C129.011 89.6394 130.749 87.9003 130.749 85.7556C130.749 83.6108 129.011 81.8716 127.767 81.8716Z" fill="url(#paint0_linear_590_221)"/>
<path d="M112.766 81.8716V82.3716H113.266H127.767C128.181 82.3716 128.8 82.6851 129.342 83.3307C129.868 83.9576 130.249 84.8178 130.249 85.7556C130.249 87.6245 128.735 89.1394 126.868 89.1394H108.826C106.959 89.1394 105.445 87.6243 105.445 85.7556C105.445 85.139 105.613 84.5693 105.926 84.0782L106.004 83.9552V83.8095V26.7239V26.2239H105.504H66.6972C64.8306 26.2239 63.3164 24.7089 63.3164 22.8401C63.3164 22.8142 63.3172 22.8044 63.3186 22.7883C63.3201 22.7714 63.3221 22.7474 63.3244 22.6903L63.3252 22.6701L63.3244 22.6498C63.3221 22.5932 63.3201 22.5693 63.3186 22.5523C63.3172 22.536 63.3164 22.5261 63.3164 22.5001V12.2166C63.3164 10.3476 64.8306 8.83282 66.6972 8.83282C68.5638 8.83282 70.0781 10.3479 70.0781 12.2166V18.9564V19.4564H70.5781H82.9964H83.4964V18.9564V4.44419C83.4964 2.57537 85.0102 1.06042 86.8767 1.06042C88.7433 1.06042 90.2575 2.57546 90.2575 4.44419V18.9564V19.4564H90.7575H109.385C111.252 19.4564 112.766 20.9714 112.766 22.8401V41.4815V41.9815H113.266H127.767C129.634 41.9815 131.148 43.4965 131.148 45.3653C131.148 47.2342 129.633 48.749 127.767 48.749H113.266H112.766V49.249V61.6763V62.1763H113.266H120C121.867 62.1763 123.381 63.6911 123.381 65.56C123.381 67.429 121.867 68.9438 120 68.9438H113.266H112.766V69.4438V81.8716Z" stroke="white"/>
</g>
<g filter="url(#filter1_b_590_221)">
<rect x="56.6289" y="32.8354" width="44.2411" height="44.2747" rx="2" fill="url(#paint1_linear_590_221)"/>
<rect x="57.1289" y="33.3354" width="43.2411" height="43.2747" rx="1.5" stroke="white"/>
</g>
<defs>
<filter id="filter0_b_590_221" x="58.8164" y="-3.43958" width="76.832" height="97.0789" filterUnits="userSpaceOnUse" color-interpolation-filters="sRGB">
<feFlood flood-opacity="0" result="BackgroundImageFix"/>
<feGaussianBlur in="BackgroundImage" stdDeviation="2"/>
<feComposite in2="SourceAlpha" operator="in" result="effect1_backgroundBlur_590_221"/>
<feBlend mode="normal" in="SourceGraphic" in2="effect1_backgroundBlur_590_221" result="shape"/>
</filter>
<filter id="filter1_b_590_221" x="55.6289" y="31.8354" width="46.2402" height="46.2747" filterUnits="userSpaceOnUse" color-interpolation-filters="sRGB">
<feFlood flood-opacity="0" result="BackgroundImageFix"/>
<feGaussianBlur in="BackgroundImage" stdDeviation="0.5"/>
<feComposite in2="SourceAlpha" operator="in" result="effect1_backgroundBlur_590_221"/>
<feBlend mode="normal" in="SourceGraphic" in2="effect1_backgroundBlur_590_221" result="shape"/>
</filter>
<linearGradient id="paint0_linear_590_221" x1="97.2321" y1="0.560426" x2="131.698" y2="148.323" gradientUnits="userSpaceOnUse">
<stop stop-color="white"/>
<stop offset="1" stop-color="white" stop-opacity="0"/>
</linearGradient>
<linearGradient id="paint1_linear_590_221" x1="78.7495" y1="32.8354" x2="78.7495" y2="114.26" gradientUnits="userSpaceOnUse">
<stop stop-color="white"/>
<stop offset="1" stop-color="white" stop-opacity="0"/>
</linearGradient>
</defs>
</svg>
