<svg width="129" height="141" viewBox="0 0 129 141" fill="none" xmlns="http://www.w3.org/2000/svg">
<g filter="url(#filter0_d_583_156)">
<path d="M75.1132 36.3522C73.7936 25.1288 64.2945 16.4231 52.7713 16.4231C41.2481 16.4231 31.7491 25.1288 30.4296 36.3522C22.4306 36.3522 15.9453 42.8685 15.9453 50.9069C15.9453 58.9453 22.4297 65.4616 30.4288 65.4616H75.114C83.1131 65.4616 89.5975 58.9453 89.5975 50.9069C89.5975 42.8685 83.1122 36.3522 75.1132 36.3522Z" fill="#5D5FEF"/>
<path fill-rule="evenodd" clip-rule="evenodd" d="M41.272 108.754C41.2721 108.757 41.2723 108.76 41.2725 108.763C39.5589 108.989 38.2018 110.354 37.9793 112.077H18.3379C18.0617 112.077 17.8379 112.301 17.8379 112.577C17.8379 112.853 18.0617 113.077 18.3379 113.077H37.9793C38.2231 114.965 39.8288 116.423 41.7734 116.423C43.7179 116.423 45.3236 114.965 45.5674 113.077H64.7292C65.0053 113.077 65.2292 112.853 65.2292 112.577C65.2292 112.301 65.0053 112.077 64.7292 112.077H45.5674C45.3447 110.353 43.9859 108.987 42.2705 108.763C42.2711 108.752 42.2715 108.742 42.2715 108.731L42.2715 70.2692C42.2715 69.993 42.0476 69.7692 41.7715 69.7692C41.4953 69.7692 41.2715 69.993 41.2715 70.2692L41.2715 108.731C41.2715 108.738 41.2717 108.746 41.272 108.754ZM41.7734 115.423C43.3292 115.423 44.5994 114.154 44.5994 112.577C44.5994 111 43.3292 109.731 41.7734 109.731C40.2175 109.731 38.9473 111 38.9473 112.577C38.9473 114.154 40.2175 115.423 41.7734 115.423Z" fill="white"/>
<g filter="url(#filter1_b_583_156)">
<path d="M64.6076 39.4179C63.2023 27.4619 53.0864 18.1878 40.815 18.1878C28.5435 18.1878 18.4276 27.4619 17.0225 39.4179C8.50402 39.4179 1.59766 46.3596 1.59766 54.9227C1.59766 63.4859 8.50312 70.4276 17.0216 70.4276H64.6085C73.127 70.4276 80.0324 63.4859 80.0324 54.9227C80.0324 46.3596 73.1261 39.4179 64.6076 39.4179Z" fill="url(#paint0_linear_583_156)"/>
<path d="M64.111 39.4762L64.1629 39.9179H64.6076C72.8475 39.9179 79.5324 46.6333 79.5324 54.9227C79.5324 63.2122 72.8484 69.9276 64.6085 69.9276H17.0216C8.78173 69.9276 2.09766 63.2122 2.09766 54.9227C2.09766 46.6333 8.78259 39.9179 17.0225 39.9179H17.4672L17.5191 39.4762C18.8952 27.767 28.8021 18.6878 40.815 18.6878C52.8278 18.6878 62.7347 27.767 64.111 39.4762Z" stroke="white"/>
</g>
<rect x="16.9023" y="76.0386" width="47.8261" height="8.65386" rx="4.32693" fill="#5D5FEF"/>
<rect x="16.9023" y="86.6155" width="47.8261" height="8.65386" rx="4.32693" fill="#5D5FEF"/>
<rect x="16.9023" y="97.1925" width="47.8261" height="8.65386" rx="4.32693" fill="#5D5FEF"/>
<ellipse cx="21.6845" cy="80.8463" rx="1.91304" ry="1.92308" fill="white"/>
<ellipse cx="22.6416" cy="91.4231" rx="1.91304" ry="1.92308" fill="white"/>
<ellipse cx="22.6416" cy="102" rx="1.91304" ry="1.92308" fill="white"/>
<ellipse cx="27.4228" cy="80.8463" rx="1.91304" ry="1.92308" fill="white"/>
<ellipse cx="27.4228" cy="91.4232" rx="1.91304" ry="1.92308" fill="white"/>
<ellipse cx="27.4228" cy="102" rx="1.91304" ry="1.92308" fill="white"/>
<ellipse cx="32.206" cy="80.8463" rx="1.91304" ry="1.92308" fill="white"/>
<ellipse cx="32.206" cy="91.4232" rx="1.91304" ry="1.92308" fill="white"/>
<ellipse cx="32.206" cy="102" rx="1.91304" ry="1.92308" fill="white"/>
<g filter="url(#filter2_b_583_156)">
<rect x="42.7285" y="74.1155" width="25.8261" height="6.73078" rx="3.36539" fill="url(#paint1_linear_583_156)"/>
<rect x="42.8285" y="74.2155" width="25.6261" height="6.53078" rx="3.26539" stroke="white" stroke-width="0.2"/>
</g>
<g filter="url(#filter3_b_583_156)">
<rect x="42.7285" y="84.6925" width="25.8261" height="6.73078" rx="3.36539" fill="url(#paint2_linear_583_156)"/>
<rect x="42.8285" y="84.7925" width="25.6261" height="6.53078" rx="3.26539" stroke="white" stroke-width="0.2"/>
</g>
<g filter="url(#filter4_b_583_156)">
<rect x="42.7285" y="94.3078" width="25.8261" height="6.73078" rx="3.36539" fill="url(#paint3_linear_583_156)"/>
<rect x="42.8285" y="94.4078" width="25.6261" height="6.53078" rx="3.26539" stroke="white" stroke-width="0.2"/>
</g>
</g>
<defs>
<filter id="filter0_d_583_156" x="0.597656" y="0.423096" width="128" height="140" filterUnits="userSpaceOnUse" color-interpolation-filters="sRGB">
<feFlood flood-opacity="0" result="BackgroundImageFix"/>
<feColorMatrix in="SourceAlpha" type="matrix" values="0 0 0 0 0 0 0 0 0 0 0 0 0 0 0 0 0 0 127 0" result="hardAlpha"/>
<feOffset dx="19" dy="4"/>
<feGaussianBlur stdDeviation="10"/>
<feComposite in2="hardAlpha" operator="out"/>
<feColorMatrix type="matrix" values="0 0 0 0 0.208333 0 0 0 0 0.181424 0 0 0 0 0.181424 0 0 0 0.15 0"/>
<feBlend mode="normal" in2="BackgroundImageFix" result="effect1_dropShadow_583_156"/>
<feBlend mode="normal" in="SourceGraphic" in2="effect1_dropShadow_583_156" result="shape"/>
</filter>
<filter id="filter1_b_583_156" x="-2.40234" y="14.1878" width="86.4355" height="60.2398" filterUnits="userSpaceOnUse" color-interpolation-filters="sRGB">
<feFlood flood-opacity="0" result="BackgroundImageFix"/>
<feGaussianBlur in="BackgroundImage" stdDeviation="2"/>
<feComposite in2="SourceAlpha" operator="in" result="effect1_backgroundBlur_583_156"/>
<feBlend mode="normal" in="SourceGraphic" in2="effect1_backgroundBlur_583_156" result="shape"/>
</filter>
<filter id="filter2_b_583_156" x="38.7285" y="70.1155" width="33.8262" height="14.7308" filterUnits="userSpaceOnUse" color-interpolation-filters="sRGB">
<feFlood flood-opacity="0" result="BackgroundImageFix"/>
<feGaussianBlur in="BackgroundImage" stdDeviation="2"/>
<feComposite in2="SourceAlpha" operator="in" result="effect1_backgroundBlur_583_156"/>
<feBlend mode="normal" in="SourceGraphic" in2="effect1_backgroundBlur_583_156" result="shape"/>
</filter>
<filter id="filter3_b_583_156" x="38.7285" y="80.6925" width="33.8262" height="14.7308" filterUnits="userSpaceOnUse" color-interpolation-filters="sRGB">
<feFlood flood-opacity="0" result="BackgroundImageFix"/>
<feGaussianBlur in="BackgroundImage" stdDeviation="2"/>
<feComposite in2="SourceAlpha" operator="in" result="effect1_backgroundBlur_583_156"/>
<feBlend mode="normal" in="SourceGraphic" in2="effect1_backgroundBlur_583_156" result="shape"/>
</filter>
<filter id="filter4_b_583_156" x="38.7285" y="90.3078" width="33.8262" height="14.7308" filterUnits="userSpaceOnUse" color-interpolation-filters="sRGB">
<feFlood flood-opacity="0" result="BackgroundImageFix"/>
<feGaussianBlur in="BackgroundImage" stdDeviation="2"/>
<feComposite in2="SourceAlpha" operator="in" result="effect1_backgroundBlur_583_156"/>
<feBlend mode="normal" in="SourceGraphic" in2="effect1_backgroundBlur_583_156" result="shape"/>
</filter>
<linearGradient id="paint0_linear_583_156" x1="40.8151" y1="-1.84618" x2="40.8151" y2="100.077" gradientUnits="userSpaceOnUse">
<stop stop-color="white"/>
<stop offset="1" stop-color="white" stop-opacity="0"/>
</linearGradient>
<linearGradient id="paint1_linear_583_156" x1="55.6416" y1="74.1155" x2="55.6416" y2="80.8463" gradientUnits="userSpaceOnUse">
<stop stop-color="white"/>
<stop offset="1" stop-color="white" stop-opacity="0"/>
</linearGradient>
<linearGradient id="paint2_linear_583_156" x1="55.6416" y1="84.6925" x2="55.6416" y2="91.4233" gradientUnits="userSpaceOnUse">
<stop stop-color="white"/>
<stop offset="1" stop-color="white" stop-opacity="0"/>
</linearGradient>
<linearGradient id="paint3_linear_583_156" x1="55.6416" y1="94.3078" x2="55.6416" y2="101.039" gradientUnits="userSpaceOnUse">
<stop stop-color="white"/>
<stop offset="1" stop-color="white" stop-opacity="0"/>
</linearGradient>
</defs>
</svg>
