<svg width="164" height="141" viewBox="0 0 164 141" fill="none" xmlns="http://www.w3.org/2000/svg">
<g filter="url(#filter0_d_583_183)">
<rect x="39.6367" y="19.2802" width="85.3042" height="77.1429" rx="2" fill="#5D5FEF"/>
<g filter="url(#filter1_b_583_183)">
<mask id="path-2-inside-1_583_183" fill="white">
<path fill-rule="evenodd" clip-rule="evenodd" d="M51.5918 99.2802C50.4872 99.2802 49.5918 100.176 49.5918 101.28V111.566C49.5918 112.671 50.4872 113.566 51.5918 113.566H33.9579C33.1689 113.566 32.5293 114.206 32.5293 114.995C32.5293 115.784 33.1689 116.423 33.9579 116.423H96.5006C97.2896 116.423 97.9292 115.784 97.9292 114.995C97.9292 114.206 97.2896 113.566 96.5006 113.566H76.0265C77.1311 113.566 78.0265 112.671 78.0265 111.566V101.28C78.0265 100.176 77.1311 99.2802 76.0265 99.2802H51.5918Z"/>
</mask>
<path fill-rule="evenodd" clip-rule="evenodd" d="M51.5918 99.2802C50.4872 99.2802 49.5918 100.176 49.5918 101.28V111.566C49.5918 112.671 50.4872 113.566 51.5918 113.566H33.9579C33.1689 113.566 32.5293 114.206 32.5293 114.995C32.5293 115.784 33.1689 116.423 33.9579 116.423H96.5006C97.2896 116.423 97.9292 115.784 97.9292 114.995C97.9292 114.206 97.2896 113.566 96.5006 113.566H76.0265C77.1311 113.566 78.0265 112.671 78.0265 111.566V101.28C78.0265 100.176 77.1311 99.2802 76.0265 99.2802H51.5918Z" fill="url(#paint0_linear_583_183)"/>
<path d="M50.0918 101.28C50.0918 100.452 50.7634 99.7802 51.5918 99.7802V98.7802C50.2111 98.7802 49.0918 99.8995 49.0918 101.28H50.0918ZM50.0918 111.566V101.28H49.0918V111.566H50.0918ZM51.5918 113.066C50.7634 113.066 50.0918 112.394 50.0918 111.566H49.0918C49.0918 112.947 50.2111 114.066 51.5918 114.066V113.066ZM33.9579 114.066H51.5918V113.066H33.9579V114.066ZM33.0293 114.995C33.0293 114.482 33.445 114.066 33.9579 114.066V113.066C32.8927 113.066 32.0293 113.929 32.0293 114.995H33.0293ZM33.9579 115.923C33.445 115.923 33.0293 115.507 33.0293 114.995H32.0293C32.0293 116.06 32.8928 116.923 33.9579 116.923V115.923ZM96.5006 115.923H33.9579V116.923H96.5006V115.923ZM97.4292 114.995C97.4292 115.507 97.0134 115.923 96.5006 115.923V116.923C97.5657 116.923 98.4292 116.06 98.4292 114.995H97.4292ZM96.5006 114.066C97.0134 114.066 97.4292 114.482 97.4292 114.995H98.4292C98.4292 113.929 97.5657 113.066 96.5006 113.066V114.066ZM76.0265 114.066H96.5006V113.066H76.0265V114.066ZM77.5265 111.566C77.5265 112.394 76.855 113.066 76.0265 113.066V114.066C77.4072 114.066 78.5265 112.947 78.5265 111.566H77.5265ZM77.5265 101.28V111.566H78.5265V101.28H77.5265ZM76.0265 99.7802C76.855 99.7802 77.5265 100.452 77.5265 101.28H78.5265C78.5265 99.8995 77.4072 98.7802 76.0265 98.7802V99.7802ZM51.5918 99.7802H76.0265V98.7802H51.5918V99.7802Z" fill="white" mask="url(#path-2-inside-1_583_183)"/>
</g>
<g filter="url(#filter2_b_583_183)">
<path fill-rule="evenodd" clip-rule="evenodd" d="M15.4648 29.8516C15.4648 28.7471 16.3603 27.8516 17.4648 27.8516H112.986C114.091 27.8516 114.986 28.7471 114.986 29.8516V101.566C114.986 102.671 114.091 103.566 112.986 103.566H17.4648C16.3603 103.566 15.4648 102.671 15.4648 101.566V29.8516Z" fill="url(#paint1_linear_583_183)"/>
</g>
<ellipse cx="45.4215" cy="23.7265" rx="1.67733" ry="1.68539" fill="white"/>
<rect x="51.5703" y="23.1647" width="58.1474" height="1.1236" rx="0.561798" fill="white"/>
<path d="M34.4412 36.2548L32.4285 35.095C32.4828 34.5925 32.5114 34.0825 32.5114 33.566C32.5114 33.0495 32.4828 32.5394 32.4285 32.0369L34.4412 30.8771C34.8713 30.6293 35.179 30.229 35.3076 29.75C35.4361 29.2711 35.3701 28.7708 35.1217 28.3415L31.2497 21.6476C30.9183 21.0748 30.3005 20.7191 29.6371 20.7191C29.3125 20.7191 28.9918 20.8053 28.7091 20.968L26.6907 22.1312C25.8702 21.5307 24.9834 21.0159 24.0429 20.6002V18.2794C24.0429 17.2558 23.2086 16.4231 22.1832 16.4231H14.4387C13.4132 16.4231 12.5789 17.2558 12.5789 18.2794V20.6002C11.6384 21.0159 10.7515 21.5308 9.93113 22.1313L7.91266 20.9683C7.63015 20.8054 7.30929 20.7192 6.98466 20.7192C6.32129 20.7192 5.70345 21.0749 5.37212 21.6477L1.50001 28.3415C1.25163 28.7707 1.18562 29.2711 1.3141 29.75C1.44282 30.229 1.75039 30.6292 2.18044 30.8771L4.19315 32.0369C4.13891 32.5394 4.11032 33.0494 4.11032 33.566C4.11032 34.0826 4.13891 34.5926 4.19315 35.095L2.18044 36.2548C1.75039 36.5026 1.44282 36.9028 1.3141 37.3819C1.18562 37.8608 1.25163 38.3612 1.50001 38.7904L5.372 45.4843C5.70333 46.0571 6.32117 46.4129 6.98455 46.4129C7.30917 46.4129 7.62992 46.3268 7.91254 46.1639L9.93102 45.0007C10.7515 45.6013 11.6383 46.116 12.5787 46.5317V48.8527C12.5787 49.3485 12.7722 49.8145 13.1236 50.1651C13.4749 50.5157 13.942 50.7088 14.4386 50.7088H22.1831C23.2085 50.7088 24.0429 49.8762 24.0429 48.8527V46.5317C24.9833 46.1159 25.8702 45.6013 26.6905 45.0007L28.7091 46.1638C28.9916 46.3267 29.3125 46.4127 29.6371 46.4127C30.3005 46.4127 30.9183 46.057 31.2497 45.4842L35.1217 38.7903C35.3701 38.3611 35.4361 37.8607 35.3076 37.3818C35.179 36.9028 34.8714 36.5026 34.4412 36.2548ZM18.311 40.1058C14.6922 40.1058 11.7585 37.1777 11.7585 33.566C11.7585 29.9543 14.6923 27.0262 18.311 27.0262C21.9296 27.0262 24.8634 29.9543 24.8634 33.566C24.8634 37.1777 21.9296 40.1058 18.311 40.1058Z" fill="#5D5FEF"/>
</g>
<defs>
<filter id="filter0_d_583_183" x="0.25" y="0.423096" width="163.691" height="140" filterUnits="userSpaceOnUse" color-interpolation-filters="sRGB">
<feFlood flood-opacity="0" result="BackgroundImageFix"/>
<feColorMatrix in="SourceAlpha" type="matrix" values="0 0 0 0 0 0 0 0 0 0 0 0 0 0 0 0 0 0 127 0" result="hardAlpha"/>
<feOffset dx="19" dy="4"/>
<feGaussianBlur stdDeviation="10"/>
<feComposite in2="hardAlpha" operator="out"/>
<feColorMatrix type="matrix" values="0 0 0 0 0.208333 0 0 0 0 0.181424 0 0 0 0 0.181424 0 0 0 0.15 0"/>
<feBlend mode="normal" in2="BackgroundImageFix" result="effect1_dropShadow_583_183"/>
<feBlend mode="normal" in="SourceGraphic" in2="effect1_dropShadow_583_183" result="shape"/>
</filter>
<filter id="filter1_b_583_183" x="25.5293" y="92.2802" width="79.4004" height="31.1429" filterUnits="userSpaceOnUse" color-interpolation-filters="sRGB">
<feFlood flood-opacity="0" result="BackgroundImageFix"/>
<feGaussianBlur in="BackgroundImage" stdDeviation="3.5"/>
<feComposite in2="SourceAlpha" operator="in" result="effect1_backgroundBlur_583_183"/>
<feBlend mode="normal" in="SourceGraphic" in2="effect1_backgroundBlur_583_183" result="shape"/>
</filter>
<filter id="filter2_b_583_183" x="7.46484" y="19.8516" width="115.521" height="91.7144" filterUnits="userSpaceOnUse" color-interpolation-filters="sRGB">
<feFlood flood-opacity="0" result="BackgroundImageFix"/>
<feGaussianBlur in="BackgroundImage" stdDeviation="4"/>
<feComposite in2="SourceAlpha" operator="in" result="effect1_backgroundBlur_583_183"/>
<feBlend mode="normal" in="SourceGraphic" in2="effect1_backgroundBlur_583_183" result="shape"/>
</filter>
<linearGradient id="paint0_linear_583_183" x1="67.565" y1="95.271" x2="68.9982" y2="128.389" gradientUnits="userSpaceOnUse">
<stop stop-color="white"/>
<stop offset="1" stop-color="white" stop-opacity="0"/>
</linearGradient>
<linearGradient id="paint1_linear_583_183" x1="277.122" y1="-28.342" x2="277.122" y2="167.096" gradientUnits="userSpaceOnUse">
<stop stop-color="white"/>
<stop offset="1" stop-color="white" stop-opacity="0"/>
</linearGradient>
</defs>
</svg>
