<svg width="160" height="141" viewBox="0 0 160 141" fill="none" xmlns="http://www.w3.org/2000/svg">
<g filter="url(#filter0_d_583_179)">
<path d="M74.7148 16.4231C80.4143 16.4231 85.0308 22.5633 90.0844 24.6722C95.1379 26.7812 103.041 25.6241 106.879 29.618C110.716 33.6119 109.748 40.9465 111.913 46.1162C114.079 51.2859 120.31 55.6158 120.31 61.2148C120.31 66.8137 114.06 71.3489 111.913 76.3133C109.767 81.2777 110.944 89.0416 106.879 92.8116C102.813 96.5815 95.3469 95.667 90.0844 97.7573C84.8219 99.8476 80.4143 106.006 74.7148 106.006C69.0154 106.006 64.3988 99.8662 59.3453 97.7573C54.2918 95.6484 46.3885 96.8055 42.5509 92.8116C38.7132 88.8176 39.6441 81.483 37.5163 76.3133C35.3885 71.1436 29.1191 66.8137 29.1191 61.2148C29.1191 55.6158 35.3695 51.0806 37.5163 46.1162C39.6631 41.1518 38.4853 33.3879 42.5509 29.618C46.6165 25.848 54.0828 26.7625 59.3453 24.6722C64.6078 22.5819 69.0154 16.4231 74.7148 16.4231Z" fill="#5D5FEF"/>
<g filter="url(#filter1_b_583_179)">
<path d="M52.4483 16.4231C58.8105 16.4231 63.9638 23.2773 69.605 25.6314C75.2461 27.9856 84.0684 26.6939 88.3522 31.1523C92.6361 35.6106 91.5545 43.7981 93.9722 49.5689C96.3898 55.3398 103.346 60.1731 103.346 66.4231C103.346 72.6731 96.3686 77.7356 93.9722 83.2773C91.5757 88.8189 92.8906 97.4856 88.3522 101.694C83.8139 105.902 75.4794 104.881 69.605 107.215C63.7306 109.548 58.8105 116.423 52.4483 116.423C46.0861 116.423 40.9327 109.569 35.2916 107.215C29.6504 104.861 20.8282 106.152 16.5443 101.694C12.2605 97.2356 13.2996 89.0481 10.9244 83.2773C8.54918 77.5064 1.55078 72.6731 1.55078 66.4231C1.55078 60.1731 8.52798 55.1106 10.9244 49.5689C13.3208 44.0273 12.006 35.3606 16.5443 31.1523C21.0827 26.9439 29.4172 27.9648 35.2916 25.6314C41.166 23.2981 46.0861 16.4231 52.4483 16.4231Z" fill="url(#paint0_linear_583_179)"/>
<path d="M52.4483 16.6731C55.5424 16.6731 58.3636 18.3405 61.1509 20.3473C61.7883 20.8062 62.421 21.2805 63.0538 21.755L63.2251 21.8834C63.9142 22.3998 64.6036 22.9145 65.2947 23.4035C66.6757 24.3808 68.0731 25.263 69.5087 25.8621C70.9456 26.4618 72.577 26.8262 74.2708 27.1069C75.2173 27.2638 76.2005 27.3968 77.1828 27.5297C77.9449 27.6328 78.7064 27.7359 79.4497 27.8499C82.8979 28.3789 86.0944 29.1633 88.172 31.3255C90.2561 33.4945 91.0484 36.5855 91.6156 39.9104C91.7335 40.6014 91.8416 41.3029 91.9501 42.007C92.3594 44.6631 92.7745 47.3572 93.7416 49.6655C94.7115 51.9808 96.4043 54.1507 98.0711 56.2875C98.509 56.8488 98.9451 57.4079 99.3659 57.9667C101.407 60.6774 103.096 63.3888 103.096 66.4231C103.096 69.4582 101.401 72.2273 99.3573 74.9663C98.8903 75.5922 98.4076 76.2136 97.9248 76.8351L97.7937 77.0038C97.268 77.6808 96.744 78.3581 96.2462 79.037C95.2513 80.3936 94.3529 81.7669 93.7427 83.178C93.1318 84.5907 92.7607 86.1944 92.4749 87.8586C92.3152 88.7884 92.1797 89.7548 92.0444 90.72C91.9394 91.4687 91.8345 92.2168 91.7185 92.9463C91.1802 96.3328 90.3823 99.4705 88.1822 101.511C85.973 103.559 82.8237 104.348 79.4386 104.911C78.7112 105.032 77.9724 105.142 77.2311 105.253C74.5514 105.653 71.8393 106.058 69.5127 106.982C67.1409 107.925 64.9193 109.599 62.7305 111.249C62.173 111.669 61.6176 112.087 61.0623 112.492C58.3034 114.502 55.5412 116.173 52.4483 116.173C49.3542 116.173 46.533 114.506 43.7456 112.499C43.1081 112.04 42.4752 111.565 41.8422 111.091L41.6715 110.963C40.9824 110.446 40.2929 109.932 39.6019 109.443C38.2209 108.465 36.8235 107.583 35.3879 106.984C33.951 106.384 32.3195 106.02 30.6258 105.739C29.6792 105.582 28.696 105.449 27.7137 105.316C26.9516 105.213 26.1902 105.11 25.4469 104.996C21.9986 104.467 18.8022 103.683 16.7246 101.521C14.6402 99.3514 13.8374 96.2598 13.265 92.9354C13.142 92.2212 13.0297 91.4958 12.917 90.7677C12.5095 88.1351 12.0968 85.469 11.1556 83.1821C10.1961 80.851 8.49098 78.6677 6.81167 76.5175C6.38399 75.9699 5.95799 75.4244 5.54641 74.8792C3.49981 72.1682 1.80078 69.457 1.80078 66.4231C1.80078 63.388 3.49592 60.6188 5.53931 57.8799C6.00641 57.2538 6.48932 56.6322 6.97231 56.0105C7.01583 55.9544 7.05935 55.8984 7.10286 55.8424C7.6286 55.1654 8.15254 54.4881 8.65038 53.8092C9.64524 52.4525 10.5436 51.0793 11.1539 49.6682C11.7647 48.2555 12.1359 46.6518 12.4217 44.9875C12.5814 44.0578 12.7169 43.0913 12.8522 42.1261C12.9572 41.3774 13.0621 40.6294 13.178 39.8998C13.7163 36.5134 14.5143 33.3756 16.7143 31.3356C18.9236 29.287 22.0729 28.4978 25.4579 27.9353C26.1854 27.8145 26.9242 27.7041 27.6654 27.5934C30.3451 27.1931 33.0573 26.7879 35.3839 25.8638C37.7557 24.9217 39.9773 23.2473 42.166 21.5976C42.7236 21.1774 43.279 20.7588 43.8342 20.3543C46.5931 18.3444 49.3554 16.6731 52.4483 16.6731Z" stroke="white" stroke-width="0.5"/>
</g>
<path d="M43.9237 69.2633C43.9237 74.4581 43.0539 78.3033 41.3142 80.799C39.5883 83.2946 36.9236 84.5424 33.32 84.5424C29.8269 84.5424 27.1898 83.2539 25.4087 80.6769C23.6414 78.0998 22.7578 74.2953 22.7578 69.2633C22.7578 64.0143 23.6207 60.1487 25.3466 57.6666C27.0724 55.171 29.7303 53.9231 33.32 53.9231C36.8132 53.9231 39.4503 55.2252 41.2314 57.8294C43.0262 60.4336 43.9237 64.2449 43.9237 69.2633ZM29.1159 69.2633C29.1159 72.9119 29.4334 75.5296 30.0685 77.1165C30.7175 78.6899 31.8013 79.4765 33.32 79.4765C34.8112 79.4765 35.8881 78.6763 36.5508 77.0758C37.2136 75.4753 37.5449 72.8712 37.5449 69.2633C37.5449 65.6148 37.2067 62.997 36.5301 61.4101C35.8674 59.8096 34.7974 59.0094 33.32 59.0094C31.8151 59.0094 30.7382 59.8096 30.0892 61.4101C29.4403 62.997 29.1159 65.6148 29.1159 69.2633Z" fill="#5D5FEF"/>
<path d="M51.98 63.3022C51.98 65.0248 52.1318 66.3133 52.4356 67.1678C52.7532 68.0087 53.2571 68.4292 53.9474 68.4292C55.2729 68.4292 55.9356 66.7202 55.9356 63.3022C55.9356 59.9114 55.2729 58.2159 53.9474 58.2159C53.2571 58.2159 52.7532 58.6364 52.4356 59.4773C52.1318 60.3047 51.98 61.5797 51.98 63.3022ZM61.1546 63.2615C61.1546 66.3811 60.5402 68.7276 59.3114 70.3009C58.0826 71.8607 56.2808 72.6406 53.906 72.6406C51.6279 72.6406 49.8675 71.8404 48.6249 70.2399C47.3823 68.6258 46.761 66.2997 46.761 63.2615C46.761 57.0631 49.1427 53.9638 53.906 53.9638C56.2394 53.9638 58.0274 54.7709 59.27 56.3849C60.5264 57.9854 61.1546 60.2776 61.1546 63.2615ZM75.4033 54.3911L58.6072 84.1355H53.6368L70.4328 54.3911H75.4033ZM73.1873 75.1837C73.1873 76.9063 73.3391 78.1948 73.6429 79.0493C73.9604 79.8902 74.4644 80.3107 75.1547 80.3107C76.4802 80.3107 77.1429 78.6017 77.1429 75.1837C77.1429 71.7929 76.4802 70.0975 75.1547 70.0975C74.4644 70.0975 73.9604 70.5179 73.6429 71.3589C73.3391 72.1862 73.1873 73.4612 73.1873 75.1837ZM82.3619 75.143C82.3619 78.249 81.7475 80.5887 80.5187 82.1621C79.2899 83.7219 77.4881 84.5018 75.1133 84.5018C72.8352 84.5018 71.0748 83.7015 69.8322 82.101C68.5896 80.487 67.9683 78.1677 67.9683 75.143C67.9683 68.9446 70.35 65.8453 75.1133 65.8453C77.4467 65.8453 79.2347 66.6524 80.4773 68.2664C81.7337 69.8669 82.3619 72.1591 82.3619 75.143Z" fill="#5D5FEF"/>
</g>
<defs>
<filter id="filter0_d_583_179" x="0.550781" y="0.423096" width="158.76" height="140" filterUnits="userSpaceOnUse" color-interpolation-filters="sRGB">
<feFlood flood-opacity="0" result="BackgroundImageFix"/>
<feColorMatrix in="SourceAlpha" type="matrix" values="0 0 0 0 0 0 0 0 0 0 0 0 0 0 0 0 0 0 127 0" result="hardAlpha"/>
<feOffset dx="19" dy="4"/>
<feGaussianBlur stdDeviation="10"/>
<feComposite in2="hardAlpha" operator="out"/>
<feColorMatrix type="matrix" values="0 0 0 0 0.208333 0 0 0 0 0.181424 0 0 0 0 0.181424 0 0 0 0.15 0"/>
<feBlend mode="normal" in2="BackgroundImageFix" result="effect1_dropShadow_583_179"/>
<feBlend mode="normal" in="SourceGraphic" in2="effect1_dropShadow_583_179" result="shape"/>
</filter>
<filter id="filter1_b_583_179" x="-2.44922" y="12.4231" width="109.795" height="108" filterUnits="userSpaceOnUse" color-interpolation-filters="sRGB">
<feFlood flood-opacity="0" result="BackgroundImageFix"/>
<feGaussianBlur in="BackgroundImage" stdDeviation="2"/>
<feComposite in2="SourceAlpha" operator="in" result="effect1_backgroundBlur_583_179"/>
<feBlend mode="normal" in="SourceGraphic" in2="effect1_backgroundBlur_583_179" result="shape"/>
</filter>
<linearGradient id="paint0_linear_583_179" x1="52.4483" y1="-35.6602" x2="52.4483" y2="141.423" gradientUnits="userSpaceOnUse">
<stop stop-color="white"/>
<stop offset="1" stop-color="white" stop-opacity="0"/>
</linearGradient>
</defs>
</svg>
