<svg width="302" height="123" viewBox="0 0 302 123" fill="none" xmlns="http://www.w3.org/2000/svg">
<g clip-path="url(#clip0_126_1570)">
<path d="M96.5307 36.6601C97.9699 36.8313 99.2957 37.5099 100.259 38.5686C101.223 39.6272 101.759 40.9933 101.765 42.4104V105.645C101.783 106.408 101.633 107.166 101.327 107.868C101.021 108.57 100.564 109.2 99.989 109.716C99.0711 110.65 97.8491 111.243 96.5328 111.393V122.235C96.5328 122.438 96.4508 122.632 96.3046 122.776C96.1584 122.92 95.9599 123.001 95.7526 123.002C95.5442 123.002 95.3443 122.921 95.1965 122.778C95.0488 122.634 94.9652 122.439 94.9641 122.235V111.393C93.649 111.241 92.4283 110.649 91.51 109.716C90.9351 109.2 90.4796 108.57 90.1739 107.867C89.8683 107.165 89.7196 106.407 89.7378 105.645V42.4104C89.7402 40.9934 90.2731 39.6263 91.2359 38.5669C92.1987 37.5076 93.5248 36.8294 94.9641 36.6601V17.0109C94.9652 16.8073 95.0488 16.6125 95.1967 16.4692C95.3445 16.3259 95.5444 16.2457 95.7526 16.2462C95.9598 16.2468 96.1582 16.3276 96.3044 16.4709C96.4507 16.6142 96.5328 16.8084 96.5328 17.0109L96.5307 36.6601Z" fill="url(#paint0_linear_126_1570)"/>
<path d="M75.0814 20.4139C76.5181 20.5894 77.8406 21.2695 78.8025 22.3274C79.7644 23.3852 80.3001 24.7488 80.3098 26.1641V89.3985C80.3273 90.161 80.1779 90.9184 79.8716 91.6198C79.5652 92.3213 79.109 92.9506 78.5334 93.4656C77.6182 94.402 76.3973 94.9966 75.0814 95.1466V110.809C75.0787 110.959 75.0312 111.105 74.9448 111.229C74.8584 111.353 74.7367 111.45 74.5949 111.507C74.453 111.565 74.297 111.58 74.1461 111.552C73.9952 111.524 73.856 111.454 73.7455 111.35C73.5986 111.207 73.5156 111.013 73.5148 110.811V95.1466C72.1986 94.9953 70.9774 94.401 70.0606 93.4656C69.4864 92.9502 69.0313 92.321 68.7257 91.62C68.4201 90.919 68.2711 90.1623 68.2885 89.4005V26.1662C68.293 24.7499 68.8263 23.384 69.7882 22.3248C70.7502 21.2657 72.0745 20.5862 73.5127 20.4139V0.7667C73.5127 0.563359 73.5953 0.368345 73.7424 0.224561C73.8895 0.0807771 74.089 0 74.297 0C74.5045 0.00160782 74.7031 0.0829012 74.8498 0.226338C74.9966 0.369775 75.0797 0.563856 75.0814 0.7667V20.4139Z" fill="url(#paint1_linear_126_1570)"/>
<path d="M283.314 52.0536C282.64 52.0391 281.97 52.1594 281.345 52.4072C280.72 52.6551 280.153 53.0251 279.68 53.4947C279.209 53.9593 278.838 54.511 278.588 55.1175C278.339 55.7241 278.216 56.3732 278.226 57.0269C278.203 57.9395 278.461 58.8378 278.964 59.6064C279.468 60.3751 280.196 60.9788 281.053 61.3401C283.733 62.3097 286.477 63.1133 289.26 63.7447C292.454 64.4731 295.426 65.9284 297.936 67.9923C300.648 70.5282 302.009 74.1075 302.009 78.7835C302.015 80.9794 301.576 83.1548 300.718 85.1842C299.86 87.2136 298.599 89.0569 297.009 90.6079C295.419 92.1606 293.53 93.3908 291.452 94.2281C289.374 95.0654 287.147 95.4932 284.9 95.4869H272.088C271.31 95.4922 270.54 95.343 269.823 95.0484C269.106 94.7538 268.458 94.3199 267.918 93.7731C267.347 93.2547 266.895 92.6238 266.591 91.9221C266.287 91.2203 266.139 90.4636 266.157 89.7018V89.6055C266.171 88.0675 266.799 86.5958 267.907 85.5035C269.014 84.4112 270.514 83.7845 272.088 83.7568H285.38C286.39 83.7685 287.382 83.4837 288.225 82.9392C289.068 82.3947 289.725 81.6155 290.111 80.7023C290.367 80.0955 290.495 79.4457 290.491 78.7897C290.487 77.9275 290.219 77.0862 289.72 76.3749C289.222 75.6636 288.516 75.115 287.695 74.8004C287.206 74.5892 284.457 73.7897 279.453 72.4142C276.229 71.6613 273.244 70.1457 270.76 68.0005C268.048 65.4175 266.694 61.7624 266.694 57.033C266.711 52.606 268.52 48.3656 271.725 45.2373C274.931 42.1066 279.273 40.3399 283.805 40.3214H292.848C294.432 40.3258 295.949 40.9428 297.069 42.0376C298.188 43.1324 298.819 44.6159 298.823 46.1639V46.2623C298.844 47.0238 298.698 47.7809 298.396 48.483C298.094 49.185 297.641 49.816 297.07 50.3336C296.524 50.8884 295.868 51.3281 295.142 51.6257C294.416 51.9233 293.635 52.0724 292.848 52.0638L283.314 52.0536ZM209.181 115.173C207.617 115.155 206.121 114.54 205.014 113.459C203.907 112.378 203.275 110.917 203.255 109.388V67.814C203.276 62.3651 204.953 57.0453 208.068 52.5271C210.401 49.1494 213.47 46.318 217.055 44.2359C220.64 42.1538 224.651 40.8726 228.802 40.4841C232.952 40.0956 237.14 40.6093 241.063 41.9886C244.987 43.3679 248.55 45.5785 251.497 48.462C254.442 51.3451 256.696 54.8309 258.096 58.6681C259.497 62.5053 260.009 66.5984 259.596 70.6524C259.183 74.7064 257.855 78.6204 255.708 82.1123C253.56 85.6042 250.648 88.587 247.179 90.8457C242.537 93.872 237.083 95.4876 231.504 95.489C224.388 95.489 218.959 93.892 215.276 90.7043V109.388C215.248 110.918 214.611 112.378 213.502 113.458C212.392 114.537 210.896 115.153 209.33 115.173H209.181ZM231.504 83.6564C233.649 83.6762 235.777 83.2811 237.765 82.4937C239.753 81.7063 241.562 80.5422 243.087 79.0685C245.384 76.8487 246.95 74.0089 247.584 70.9134C248.218 67.8179 247.893 64.6076 246.648 61.6944C245.403 58.7812 243.297 56.2977 240.599 54.5625C237.901 52.8272 234.734 51.9193 231.504 51.9552C228.298 51.9609 225.166 52.8928 222.5 54.6337C219.834 56.3746 217.754 58.8469 216.522 61.7398C215.291 64.6311 214.963 67.8136 215.578 70.8868C216.194 73.96 217.725 76.7866 219.98 79.0111C221.472 80.5163 223.266 81.7055 225.248 82.5046C227.231 83.3037 229.36 83.6958 231.504 83.6564ZM185.602 34.0894C184.475 34.0954 183.364 33.8296 182.368 33.3158C181.371 32.802 180.519 32.0559 179.887 31.1436C179.257 30.2308 178.868 29.1797 178.754 28.0841C178.64 26.9885 178.805 25.8824 179.235 24.8643C179.664 23.8463 180.345 22.9479 181.216 22.2494C182.087 21.5509 183.121 21.0738 184.227 20.8608C185.332 20.6465 186.475 20.7022 187.554 21.0229C188.632 21.3437 189.613 21.9196 190.409 22.6996C191.059 23.3097 191.576 24.0418 191.929 24.8521C192.282 25.6623 192.464 26.5339 192.464 27.4146C192.464 28.2954 192.282 29.167 191.929 29.9772C191.576 30.7875 191.059 31.5196 190.409 32.1296C189.787 32.7589 189.039 33.2573 188.213 33.5943C187.386 33.9313 186.498 34.0998 185.602 34.0894ZM185.655 40.3173C186.434 40.301 187.208 40.4455 187.927 40.7415C188.645 41.0375 189.292 41.4784 189.824 42.0352C190.388 42.5692 190.834 43.2097 191.136 43.9177C191.438 44.6258 191.59 45.3866 191.582 46.1537V89.7039C191.561 91.233 190.93 92.6936 189.823 93.7744C188.716 94.8551 187.221 95.4704 185.657 95.489H185.552C184.766 95.4997 183.987 95.3535 183.261 95.0591C182.536 94.7647 181.879 94.3285 181.332 93.7772C180.761 93.2579 180.309 92.6272 180.003 91.9258C179.697 91.2245 179.546 90.4682 179.558 89.7059V46.1516C179.555 45.3838 179.711 44.6232 180.015 43.9155C180.32 43.2078 180.768 42.5676 181.332 42.0332C181.879 41.4802 182.535 41.0425 183.261 40.7471C183.987 40.4516 184.768 40.3047 185.554 40.3153H185.655V40.3173ZM118.823 115.175C117.258 115.155 115.763 114.54 114.654 113.459C113.546 112.379 112.912 110.92 112.887 109.39V67.814C112.908 62.3651 114.586 57.0453 117.701 52.523C120.034 49.1438 123.104 46.3111 126.689 44.228C130.274 42.1449 134.287 40.8629 138.439 40.4739C142.591 40.085 146.779 40.5988 150.704 41.9784C154.629 43.358 158.193 45.5693 161.14 48.4538C165.078 52.3118 167.757 57.2241 168.839 62.57C169.921 67.9159 169.358 73.4553 167.22 78.4883C165.079 83.5233 161.459 87.825 156.818 90.8498C152.176 93.8744 146.722 95.4886 141.143 95.489C134.032 95.489 128.602 93.89 124.915 90.7022V109.388C124.89 110.919 124.255 112.379 123.146 113.46C122.036 114.54 120.54 115.155 118.974 115.173H118.825L118.823 115.175ZM141.141 83.6584C143.286 83.6784 145.413 83.2832 147.401 82.4958C149.388 81.7084 151.197 80.5443 152.722 79.0705C154.245 77.597 155.454 75.8429 156.279 73.9097C157.105 71.9765 157.529 69.9026 157.529 67.8078C157.529 65.7131 157.105 63.6392 156.279 61.706C155.454 59.7728 154.245 58.0187 152.722 56.5451C151.197 55.0708 149.389 53.9063 147.401 53.1189C145.413 52.3314 143.286 51.9366 141.141 51.9572C137.936 51.9667 134.805 52.9004 132.14 54.6412C129.476 56.3821 127.396 58.8528 126.161 61.7439C124.93 64.6347 124.602 67.8167 125.218 70.8893C125.834 73.9619 127.366 76.7878 129.621 79.0111C131.114 80.5149 132.906 81.7032 134.888 82.5023C136.87 83.3013 138.998 83.6941 141.141 83.6564V83.6584ZM28.2499 52.0536C26.1065 52.0164 23.9782 52.4096 21.9966 53.209C20.015 54.0084 18.2224 55.1969 16.7298 56.7009C13.7158 59.6963 12.0267 63.7294 12.0267 67.9308C12.0267 72.1323 13.7158 76.1654 16.7298 79.1607C18.2317 80.6487 20.0268 81.8233 22.0066 82.6133C23.9864 83.4033 26.1097 83.7924 28.2478 83.7568C31.4643 83.7734 34.6129 82.8517 37.2907 81.1099C39.9686 79.368 42.0541 76.885 43.2807 73.9783C44.0923 72.0493 44.5033 69.9808 44.4908 67.8939C44.526 65.8093 44.122 63.7398 43.3041 61.8143C42.4862 59.8887 41.2718 58.1482 39.7364 56.7009C38.2493 55.1983 36.4622 54.0103 34.4859 53.2109C32.5096 52.4115 30.3863 52.0175 28.2478 52.0536H28.2499ZM28.2499 40.3153C31.9689 40.2616 35.6598 40.9523 39.0955 42.3448C42.5312 43.7374 45.6391 45.8024 48.228 48.4128C50.8961 50.9355 53.0078 53.9652 54.4332 57.3155C55.8586 60.6658 56.5675 64.2658 56.5162 67.8939V89.7059C56.5327 90.4679 56.3842 91.2246 56.0807 91.9266C55.7771 92.6286 55.3252 93.2599 54.7546 93.7793C54.2137 94.3248 53.5655 94.7577 52.849 95.0519C52.1325 95.3461 51.3624 95.4955 50.5853 95.491H50.4364C49.6591 95.4983 48.8885 95.3502 48.1719 95.0558C47.4553 94.7615 46.8078 94.3271 46.2692 93.7793C45.6938 93.2628 45.2375 92.6323 44.9308 91.93C44.6242 91.2276 44.4742 90.4694 44.4908 89.7059C40.7724 93.564 35.3595 95.491 28.2478 95.491C24.5321 95.544 20.8446 94.8538 17.4119 93.4627C13.9792 92.0716 10.8737 90.009 8.28641 87.4017C5.6598 84.8451 3.57539 81.8067 2.15275 78.4608C0.730099 75.115 -0.00279671 71.5275 -0.00390592 67.9042C-0.00447185 64.2809 0.727668 60.6933 2.15042 57.3475C3.57317 54.0018 5.65847 50.964 8.28641 48.4087C10.8725 45.7997 13.9777 43.7358 17.4107 42.3443C20.8436 40.9527 24.5317 40.2629 28.2478 40.3173V40.3153H28.2499Z" fill="#54279D"/>
</g>
<defs>
<linearGradient id="paint0_linear_126_1570" x1="89.7357" y1="101.864" x2="89.7357" y2="16.9945" gradientUnits="userSpaceOnUse">
<stop stop-color="#F50057"/>
<stop offset="1" stop-color="#651FFF"/>
</linearGradient>
<linearGradient id="paint1_linear_126_1570" x1="68.2864" y1="0.5576" x2="68.2864" y2="110.345" gradientUnits="userSpaceOnUse">
<stop stop-color="#F50057"/>
<stop offset="1" stop-color="#651FFF"/>
</linearGradient>
<clipPath id="clip0_126_1570">
<rect width="302" height="123" fill="white"/>
</clipPath>
</defs>
</svg>
