<svg width="0" height="0" class="hidden">
  <symbol
    fill="none"
    xmlns="http://www.w3.org/2000/svg"
    viewBox="0 0 132 131"
    id="icon-chip"
  >
    <path
      d="M91.5093 39.8329H40.0898V91.2913H91.5093V39.8329Z"
      fill="#59E0D8"
    />
    <path
      d="M91.5065 95.1728H40.0879C37.945 95.1728 36.207 93.4338 36.207 91.2891V39.8314C36.207 37.6869 37.9447 35.9476 40.0879 35.9476H91.5065C93.6494 35.9476 95.3873 37.6866 95.3873 39.8314V91.2891C95.3873 93.4341 93.6499 95.1728 91.5065 95.1728ZM43.9687 87.4053H87.626V43.7151H43.9687V87.4053Z"
      fill="#46FFF4"
    />
    <path
      d="M108.486 104.397H26.9908V26.7236H45.6183C46.2764 26.7236 46.8954 26.5582 47.4382 26.2693C49.1361 25.8549 50.3976 24.3268 50.3976 22.5004V4.44419C50.3976 2.2997 48.6599 0.560425 46.5168 0.560425C44.3739 0.560425 42.6359 2.29944 42.6359 4.44419V18.9564H23.1102C20.9673 18.9564 19.2294 20.6954 19.2294 22.8401V41.4818H4.72848C2.58535 41.4815 0.847656 43.2208 0.847656 45.3653C0.847656 47.5098 2.58535 49.249 4.72848 49.249H19.2296V61.6768H12.4947C10.3519 61.6768 8.6139 63.4158 8.6139 65.5606C8.6139 67.7053 10.3516 69.4443 12.4947 69.4443H19.2294V81.8721H4.72848C2.58535 81.8716 0.847656 83.6108 0.847656 85.7553C0.847656 87.8998 2.58535 89.6391 4.72848 89.6391H19.2296V108.281C19.2296 110.425 20.9673 112.164 23.1105 112.164H41.738V126.677C41.738 128.821 43.4757 130.56 45.6188 130.56C47.7617 130.56 49.4996 128.821 49.4996 126.677V112.164H61.9179V118.904C61.9179 121.049 63.6556 122.788 65.7988 122.788C67.9416 122.788 69.6796 121.049 69.6796 118.904V112.164H82.0979V126.677C82.0979 128.821 83.8356 130.56 85.9787 130.56C88.1218 130.56 89.8595 128.821 89.8595 126.677V112.164H108.487C110.63 112.164 112.368 110.425 112.368 108.281C112.368 106.136 110.629 104.397 108.486 104.397Z"
      fill="#46FFF4"
    />
    <path
      d="M112.266 81.8716V82.8716H113.266H127.767C127.973 82.8716 128.465 83.0638 128.959 83.6522C129.421 84.2029 129.749 84.9524 129.749 85.7556C129.749 87.3487 128.458 88.6394 126.868 88.6394H108.826C107.236 88.6394 105.945 87.3486 105.945 85.7556C105.945 85.2324 106.087 84.7562 106.348 84.3468L106.504 84.101V83.8095V26.7239V25.7239H105.504H66.6972C65.1078 25.7239 63.8174 24.4341 63.8164 22.842C63.8165 22.8406 63.8167 22.8343 63.8177 22.8192L63.8189 22.8004L63.8205 22.776C63.8217 22.7584 63.823 22.7357 63.824 22.7106L63.8257 22.67L63.824 22.6295C63.823 22.6044 63.8216 22.5818 63.8205 22.5642L63.8189 22.5399L63.8177 22.5212C63.8167 22.5059 63.8165 22.4997 63.8164 22.4984V12.2166C63.8164 10.6234 65.1071 9.33282 66.6972 9.33282C68.2873 9.33282 69.5781 10.6236 69.5781 12.2166V18.9564V19.9564H70.5781H82.9964H83.9964V18.9564V4.44419C83.9964 2.85105 85.2868 1.56042 86.8767 1.56042C88.4668 1.56042 89.7575 2.85122 89.7575 4.44419V18.9564V19.9564H90.7575H109.385C110.975 19.9564 112.266 21.2472 112.266 22.8401V41.4815V42.4815H113.266H127.767C129.357 42.4815 130.648 43.7723 130.648 45.3653C130.648 46.9584 129.357 48.249 127.767 48.249H113.266H112.266V49.249V61.6763V62.6763H113.266H120C121.591 62.6763 122.881 63.9669 122.881 65.56C122.881 67.1532 121.59 68.4438 120 68.4438H113.266H112.266V69.4438V81.8716Z"
      fill="white"
      fill-opacity="0.7"
      stroke="white"
      stroke-width="2"
    />
    <rect
      x="57.6289"
      y="33.8354"
      width="42.2411"
      height="42.2747"
      rx="1"
      fill="white"
      fill-opacity="0.6"
      stroke="white"
      stroke-width="2"
    />
  </symbol>
  <symbol
    fill="none"
    xmlns="http://www.w3.org/2000/svg"
    viewBox="0 0 89 102"
    id="icon-cloud"
  >
    <path
      d="M73.5334 22.2254C72.1281 10.2694 62.0122 0.995392 49.7407 0.995392C37.4693 0.995392 27.3534 10.2694 25.9483 22.2254C17.4298 22.2254 10.5234 29.1671 10.5234 37.7303C10.5234 46.2935 17.4289 53.2352 25.9474 53.2352H73.5343C82.0527 53.2352 88.9582 46.2935 88.9582 37.7303C88.9582 29.1671 82.0518 22.2254 73.5334 22.2254Z"
      fill="#5D5FEF"
    />
    <path
      d="M66.072 69.2115H20.1719C17.8743 69.2115 16.0117 67.3489 16.0117 65.0512C16.0117 62.7536 17.8743 60.891 20.1719 60.891H66.072C68.3696 60.891 70.2322 62.7536 70.2322 65.0512C70.2322 67.3489 68.3696 69.2115 66.072 69.2115Z"
      fill="#5D5FEF"
    />
    <path
      d="M66.072 80.1026H20.1719C17.8743 80.1026 16.0117 78.2401 16.0117 75.9424C16.0117 73.6448 17.8743 71.7822 20.1719 71.7822H66.072C68.3696 71.7822 70.2322 73.6448 70.2322 75.9424C70.2322 78.2401 68.3696 80.1026 66.072 80.1026Z"
      fill="#5D5FEF"
    />
    <path
      d="M66.072 89.9573H20.1719C17.8743 89.9573 16.0117 88.0947 16.0117 85.7971C16.0117 83.4994 17.8743 81.6368 20.1719 81.6368H66.072C68.3696 81.6368 70.2322 83.4994 70.2322 85.7971C70.2322 88.0947 68.3696 89.9573 66.072 89.9573Z"
      fill="#5D5FEF"
    />
    <path
      fill-rule="evenodd"
      clip-rule="evenodd"
      d="M40.272 93.7537C40.2721 93.757 40.2723 93.7602 40.2725 93.7634C38.5589 93.9886 37.2018 95.3538 36.9793 97.077H17.3379C17.0617 97.077 16.8379 97.3008 16.8379 97.577C16.8379 97.8531 17.0617 98.077 17.3379 98.077H36.9793C37.2231 99.9649 38.8288 101.423 40.7734 101.423C42.7179 101.423 44.3236 99.9649 44.5674 98.077H63.7292C64.0053 98.077 64.2292 97.8531 64.2292 97.577C64.2292 97.3008 64.0053 97.077 63.7292 97.077H44.5674C44.3447 95.3526 42.9859 93.9867 41.2705 93.7629C41.2711 93.7523 41.2715 93.7416 41.2715 93.7308L41.2715 55.2692C41.2715 54.993 41.0476 54.7692 40.7715 54.7692C40.4953 54.7692 40.2715 54.993 40.2715 55.2692L40.2715 93.7308C40.2715 93.7385 40.2717 93.7461 40.272 93.7537ZM40.7734 100.423C42.3292 100.423 43.5994 99.1538 43.5994 97.5769C43.5994 96.0001 42.3292 94.7308 40.7734 94.7308C39.2175 94.7308 37.9473 96.0001 37.9473 97.5769C37.9473 99.1538 39.2175 100.423 40.7734 100.423Z"
      fill="white"
    />
    <path
      d="M63.111 24.4762L63.1629 24.9179H63.6076C71.8475 24.9179 78.5324 31.6333 78.5324 39.9227C78.5324 48.2122 71.8484 54.9276 63.6085 54.9276H16.0216C7.78173 54.9276 1.09766 48.2122 1.09766 39.9227C1.09766 31.6333 7.78259 24.9179 16.0225 24.9179H16.4672L16.5191 24.4762C17.8952 12.767 27.8021 3.68782 39.815 3.68782C51.8278 3.68782 61.7347 12.767 63.111 24.4762Z"
      fill="white"
      fill-opacity="0.6"
      stroke="white"
    />
    <path
      d="M68.2972 65.8463H40.7756C38.6516 65.8463 36.9297 64.1244 36.9297 62.0003C36.9297 59.8763 38.6516 58.1544 40.7756 58.1544H68.2972C70.4212 58.1544 72.1431 59.8763 72.1431 62.0003C72.1431 64.1244 70.4213 65.8463 68.2972 65.8463Z"
      fill="#FFFAFA"
      fill-opacity="0.6"
      stroke="white"
      stroke-width="0.5"
      stroke-linecap="round"
    />
    <path
      d="M68.2972 77.3843H40.7756C38.6516 77.3843 36.9297 75.6625 36.9297 73.5384C36.9297 71.4143 38.6516 69.6925 40.7756 69.6925H68.2972C70.4212 69.6925 72.1431 71.4143 72.1431 73.5384C72.1431 75.6625 70.4213 77.3843 68.2972 77.3843Z"
      fill="#FFFAFA"
      fill-opacity="0.6"
      stroke="white"
      stroke-width="0.5"
      stroke-linecap="round"
    />
    <path
      d="M68.2972 87.8032H40.7756C38.6516 87.8032 36.9297 86.0813 36.9297 83.9573C36.9297 81.8332 38.6516 80.1113 40.7756 80.1113H68.2972C70.4212 80.1113 72.1431 81.8332 72.1431 83.9573C72.1431 86.0813 70.4213 87.8032 68.2972 87.8032Z"
      fill="#FFFAFA"
      fill-opacity="0.6"
      stroke="white"
      stroke-width="0.5"
      stroke-linecap="round"
    />
    <path
      d="M20.6836 61.9274C22.3404 61.9274 23.6836 63.2706 23.6836 64.9274C23.6836 66.5843 22.3404 67.9274 20.6836 67.9274C19.0267 67.9274 17.6836 66.5843 17.6836 64.9274C17.6836 63.2706 19.0267 61.9274 20.6836 61.9274Z"
      fill="white"
      stroke="white"
      stroke-width="0.5"
      stroke-linecap="round"
    />
    <path
      d="M20.6836 72.9424C22.3404 72.9424 23.6836 74.2856 23.6836 75.9424C23.6836 77.5993 22.3404 78.9424 20.6836 78.9424C19.0267 78.9424 17.6836 77.5993 17.6836 75.9424C17.6836 74.2856 19.0267 72.9424 20.6836 72.9424Z"
      fill="white"
      stroke="white"
      stroke-width="0.5"
      stroke-linecap="round"
    />
    <path
      d="M20.6836 82.7971C22.3404 82.7971 23.6836 84.1402 23.6836 85.7971C23.6836 87.4539 22.3404 88.7971 20.6836 88.7971C19.0267 88.7971 17.6836 87.4539 17.6836 85.7971C17.6836 84.1402 19.0267 82.7971 20.6836 82.7971Z"
      fill="white"
      stroke="white"
      stroke-width="0.5"
      stroke-linecap="round"
    />
  </symbol>
  <symbol
    fill="none"
    xmlns="http://www.w3.org/2000/svg"
    viewBox="0 0 142 109"
    id="icon-computer"
  >
    <path
      d="M41.8047 70.5496V3.42015C41.8047 1.76329 43.1478 0.420147 44.8047 0.420147H138.805C140.462 0.420147 141.805 1.7633 141.805 3.42015V70.5496C141.805 72.2065 140.462 73.5496 138.805 73.5496H44.8047C43.1478 73.5496 41.8047 72.2065 41.8047 70.5496Z"
      fill="#5D5FEF"
    />
    <path
      d="M46.1916 107.237H108.428C109.213 107.237 109.85 106.601 109.85 105.816C109.85 105.022 109.2 104.382 108.407 104.394L88.4273 104.697C88.2654 104.699 88.1328 104.569 88.1328 104.407C88.1328 104.389 88.1339 104.371 88.1402 104.354C88.1874 104.229 88.4268 103.988 89.0971 103.844C89.8171 103.69 90.0375 102.98 90.0578 102.644V95.1654C90.0578 94.6838 90.4482 94.2934 90.9298 94.2934H121.237C124.551 94.2934 127.237 91.6071 127.237 88.2934V24.566C127.237 21.2523 124.551 18.566 121.237 18.566H33.0352C29.7214 18.566 27.0352 21.2523 27.0352 24.566V88.2934C27.0352 91.6071 29.7215 94.2934 33.0352 94.2934H62.0982C62.2681 94.2934 61.8603 94.3567 61.8603 101.692C61.8603 103.397 62.7225 103.766 63.409 103.744C63.6537 103.736 63.894 103.911 63.894 104.155C63.894 104.356 63.7315 104.519 63.5309 104.519H46.1916C45.4408 104.519 44.8322 105.127 44.8322 105.878C44.8322 106.629 45.4409 107.237 46.1916 107.237Z"
      fill="white"
      fill-opacity="0.6"
      stroke="white"
      stroke-width="2"
    />
    <path
      d="M67.3262 9.91185H127.254"
      stroke="white"
      stroke-width="2"
      stroke-linecap="round"
    />
    <path
      d="M58.8535 9.91185H59.8535"
      stroke="white"
      stroke-width="2"
      stroke-linecap="round"
    />
    <path
      d="M33.4022 21.2548L31.3895 20.095C31.4437 19.5925 31.4723 19.0825 31.4723 18.566C31.4723 18.0495 31.4437 17.5394 31.3895 17.0369L33.4022 15.8771C33.8322 15.6293 34.1399 15.229 34.2685 14.75C34.397 14.2711 34.331 13.7708 34.0826 13.3415L30.2106 6.64763C29.8793 6.07478 29.2614 5.71907 28.5981 5.71907C28.2734 5.71907 27.9527 5.80527 27.6701 5.96803L25.6516 7.13122C24.8312 6.53066 23.9443 6.01595 23.0039 5.60023V3.27938C23.0039 2.25582 22.1695 1.4231 21.1441 1.4231H13.3997C12.3741 1.4231 11.5398 2.25582 11.5398 3.27938V5.60023C10.5993 6.01595 9.7124 6.53078 8.89207 7.13134L6.87359 5.96827C6.59109 5.80539 6.27023 5.71919 5.9456 5.71919C5.28223 5.71919 4.66439 6.0749 4.33306 6.64774L0.460946 13.3415C0.212563 13.7707 0.146555 14.2711 0.275041 14.75C0.403762 15.229 0.711329 15.6292 1.14138 15.8771L3.15409 17.0369C3.09985 17.5394 3.07126 18.0494 3.07126 18.566C3.07126 19.0826 3.09985 19.5926 3.15409 20.095L1.14138 21.2548C0.711329 21.5026 0.403762 21.9028 0.275041 22.3819C0.146555 22.8608 0.212563 23.3612 0.460946 23.7904L4.33294 30.4843C4.66427 31.0571 5.28211 31.4129 5.94548 31.4129C6.27011 31.4129 6.59085 31.3268 6.87348 31.1639L8.89195 30.0007C9.7124 30.6013 10.5992 31.116 11.5397 31.5317V33.8527C11.5397 34.3485 11.7331 34.8145 12.0846 35.1651C12.4358 35.5157 12.9029 35.7088 13.3996 35.7088H21.144C22.1694 35.7088 23.0039 34.8762 23.0039 33.8527V31.5317C23.9442 31.1159 24.8312 30.6013 25.6515 30.0007L27.6701 31.1638C27.9526 31.3267 28.2734 31.4127 28.5981 31.4127C29.2614 31.4127 29.8793 31.057 30.2106 30.4842L34.0826 23.7903C34.331 23.3611 34.397 22.8607 34.2685 22.3818C34.1399 21.9028 33.8323 21.5026 33.4022 21.2548ZM17.2719 25.1058C13.6531 25.1058 10.7195 22.1777 10.7195 18.566C10.7195 14.9543 13.6532 12.0262 17.2719 12.0262C20.8906 12.0262 23.8243 14.9543 23.8243 18.566C23.8243 22.1777 20.8906 25.1058 17.2719 25.1058Z"
      fill="#5D5FEF"
    />
  </symbol>
  <symbol
    fill="none"
    xmlns="http://www.w3.org/2000/svg"
    viewBox="0 0 125 101"
    id="icon-discount"
  >
    <path
      d="M120.742 39.6744C119.656 38.2357 118.63 36.8767 118.212 35.5898C117.765 34.2098 117.789 32.4477 117.814 30.5823C117.854 27.6725 117.895 24.6636 116.159 22.2779C114.406 19.8684 111.516 18.9783 108.721 18.1175C106.952 17.5728 105.281 17.0583 104.131 16.2217C103.005 15.402 102.013 13.9852 100.963 12.4855C99.3533 10.1859 97.5287 7.57935 94.6547 6.64621C93.9308 6.4111 93.1441 6.29194 92.3164 6.29194C90.3074 6.29194 88.294 6.97679 86.347 7.6392C84.5531 8.2496 82.8583 8.82598 81.3604 8.82598C79.8622 8.82598 78.1678 8.2496 76.3737 7.6392C74.4267 6.97679 72.4137 6.29194 70.4044 6.29194C69.5768 6.29194 68.7901 6.4111 68.0661 6.64621C65.192 7.57935 63.3674 10.1859 61.7576 12.4855C60.7076 13.9852 59.7161 15.402 58.5898 16.2215C57.4399 17.0583 55.769 17.5728 54 18.1177C51.2052 18.9783 48.3151 19.8682 46.5614 22.2781C44.8253 24.6634 44.8666 27.6725 44.9065 30.5823C44.9322 32.4481 44.9562 34.21 44.5083 35.59C44.0904 36.8771 43.0648 38.2359 41.9792 39.6747C40.277 41.9302 38.3477 44.4868 38.3477 47.5639C38.3477 50.641 40.277 53.1977 41.9794 55.4535C43.0652 56.8922 44.0906 58.251 44.5085 59.5382C44.9566 60.9181 44.9324 62.6803 44.9067 64.5457C44.8668 67.4556 44.8255 70.4645 46.5616 72.85C48.3153 75.2597 51.2052 76.1496 54.0002 77.0102C55.7692 77.5551 57.4399 78.0694 58.59 78.9064C59.7162 79.7261 60.708 81.1426 61.758 82.6425C63.3678 84.942 65.1924 87.5485 68.0664 88.4817C68.7903 88.7168 69.577 88.8359 70.4047 88.8359C72.4139 88.8359 74.4269 88.1511 76.3741 87.4889C78.1682 86.8785 79.8628 86.3021 81.3607 86.3021C82.8587 86.3021 84.5534 86.8785 86.3474 87.4889C88.2944 88.1513 90.3074 88.8359 92.3167 88.8359C93.1444 88.8359 93.9313 88.7168 94.6552 88.4817C97.5293 87.5485 99.3537 84.942 100.963 82.6424C102.013 81.1426 103.005 79.7259 104.131 78.9064C105.281 78.0696 106.952 77.5551 108.721 77.0102C111.516 76.1496 114.406 75.2597 116.16 72.85C117.896 70.4645 117.855 67.4554 117.815 64.5456C117.789 62.6798 117.765 60.9179 118.213 59.538C118.631 58.251 119.656 56.8922 120.742 55.4533C122.444 53.1977 124.374 50.641 124.374 47.5639C124.374 44.4868 122.444 41.93 120.742 39.6744Z"
      fill="#5D5FEF"
    />
    <path
      d="M51.4483 1.4231C54.2815 1.4231 56.9297 2.95227 59.7127 4.956C60.3438 5.41034 60.9708 5.88037 61.6046 6.35557L61.7753 6.48351C62.464 6.99972 63.161 7.52007 63.8614 8.01574C65.258 9.00409 66.7083 9.92349 68.2198 10.5543C69.7366 11.1873 71.4351 11.5629 73.1482 11.8468C74.0909 12.003 75.1071 12.1408 76.1087 12.2766C76.8727 12.3802 77.6282 12.4826 78.336 12.5912C81.7904 13.1211 84.7467 13.8839 86.6312 15.8451C88.5417 17.8335 89.3094 20.7135 89.8763 24.0366C89.9891 24.6977 90.0938 25.3789 90.2001 26.0701C90.6102 28.7364 91.0435 31.5531 92.0498 33.9553C93.0627 36.3731 94.8394 38.649 96.5135 40.7935C96.9428 41.3435 97.3655 41.8849 97.7667 42.4178C99.8071 45.1277 101.346 47.661 101.346 50.4231C101.346 53.1886 99.7981 55.7807 97.7561 58.5178C97.2935 59.1379 96.8149 59.7539 96.331 60.3769L96.2014 60.5438C95.6759 61.2204 95.1461 61.9052 94.6414 62.5935C93.6353 63.9654 92.6979 65.392 92.0543 66.8803C91.4081 68.3746 91.025 70.0472 90.7357 71.7317C90.5767 72.6575 90.4361 73.6581 90.2977 74.6433C90.1922 75.394 90.088 76.1357 89.9778 76.8286C89.439 80.2182 88.665 83.1129 86.6723 84.9607C84.6428 86.8426 81.7002 87.6086 78.3157 88.171C77.6188 88.2868 76.9008 88.3939 76.1727 88.5025C73.4813 88.9038 70.6515 89.3259 68.2358 90.2854C65.76 91.2688 63.4317 93.0249 61.2362 94.6808C60.6895 95.0932 60.1511 95.4993 59.6207 95.8857C56.8639 97.8941 54.2766 99.4231 51.4483 99.4231C48.6151 99.4231 45.9669 97.8939 43.1838 95.8902C42.5527 95.4358 41.9256 94.9657 41.2916 94.4904L41.1213 94.3627C40.4325 93.8465 39.7356 93.3261 39.0351 92.8305C37.6385 91.8421 36.1883 90.9227 34.6767 90.2919C33.16 89.6589 31.4615 89.2833 29.7484 88.9994C28.8057 88.8432 27.7895 88.7054 26.788 88.5696C26.024 88.466 25.2685 88.3635 24.5606 88.255C21.1061 87.7251 18.1498 86.9622 16.2654 85.0011C14.3537 83.0115 13.576 80.1295 13.0041 76.8081C12.8866 76.1253 12.7778 75.4212 12.6673 74.7067C12.2587 72.0621 11.828 69.2749 10.8491 66.8966C9.84631 64.4602 8.05582 62.1693 6.37001 60.0124C5.95061 59.4759 5.5377 58.9476 5.145 58.4274C3.09809 55.7159 1.55078 53.1836 1.55078 50.4231C1.55078 47.6576 3.09844 45.0655 5.14045 42.3284C5.60295 41.7084 6.08142 41.0925 6.56526 40.4697C6.60854 40.414 6.65186 40.3582 6.69521 40.3024C7.22067 39.6258 7.75049 38.941 8.2552 38.2527C9.26129 36.8807 10.1987 35.4542 10.8423 33.9658C11.4884 32.4716 11.8716 30.799 12.1609 29.1145C12.3199 28.1886 12.4605 27.188 12.5989 26.2028C12.7044 25.4522 12.8086 24.7105 12.9187 24.0176C13.4575 20.628 14.2316 17.7333 16.2243 15.8855C18.2538 14.0036 21.1964 13.2376 24.5809 12.6752C25.2778 12.5594 25.9958 12.4523 26.7239 12.3437C29.4153 11.9423 32.2451 11.5203 34.6607 10.5608C37.1365 9.5774 39.4649 7.82129 41.6604 6.16535C42.207 5.75304 42.7454 5.34694 43.2758 4.96052C46.0327 2.95213 48.6199 1.4231 51.4483 1.4231Z"
      fill="white"
      fill-opacity="0.6"
      stroke="white"
      stroke-width="2"
    />
    <path
      d="M42.9237 53.2633C42.9237 58.4581 42.0539 62.3033 40.3142 64.799C38.5883 67.2946 35.9236 68.5424 32.32 68.5424C28.8269 68.5424 26.1898 67.2539 24.4087 64.6769C22.6414 62.0998 21.7578 58.2953 21.7578 53.2633C21.7578 48.0143 22.6207 44.1487 24.3466 41.6666C26.0724 39.171 28.7303 37.9231 32.32 37.9231C35.8132 37.9231 38.4503 39.2252 40.2314 41.8294C42.0262 44.4336 42.9237 48.2449 42.9237 53.2633ZM28.1159 53.2633C28.1159 56.9119 28.4334 59.5296 29.0685 61.1165C29.7175 62.6899 30.8013 63.4765 32.32 63.4765C33.8112 63.4765 34.8881 62.6763 35.5508 61.0758C36.2136 59.4753 36.5449 56.8712 36.5449 53.2633C36.5449 49.6148 36.2067 46.997 35.5301 45.4101C34.8674 43.8096 33.7974 43.0094 32.32 43.0094C30.8151 43.0094 29.7382 43.8096 29.0892 45.4101C28.4403 46.997 28.1159 49.6148 28.1159 53.2633Z"
      fill="#5D5FEF"
    />
    <path
      d="M50.98 47.3022C50.98 49.0248 51.1318 50.3133 51.4356 51.1678C51.7532 52.0087 52.2571 52.4292 52.9474 52.4292C54.2729 52.4292 54.9356 50.7202 54.9356 47.3022C54.9356 43.9114 54.2729 42.2159 52.9474 42.2159C52.2571 42.2159 51.7532 42.6364 51.4356 43.4773C51.1318 44.3047 50.98 45.5797 50.98 47.3022ZM60.1546 47.2615C60.1546 50.3811 59.5402 52.7276 58.3114 54.3009C57.0826 55.8607 55.2808 56.6406 52.906 56.6406C50.6279 56.6406 48.8675 55.8404 47.6249 54.2399C46.3823 52.6258 45.761 50.2997 45.761 47.2615C45.761 41.0631 48.1427 37.9638 52.906 37.9638C55.2394 37.9638 57.0274 38.7709 58.27 40.3849C59.5264 41.9854 60.1546 44.2776 60.1546 47.2615ZM74.4033 38.3911L57.6072 68.1355H52.6368L69.4328 38.3911H74.4033ZM72.1873 59.1837C72.1873 60.9063 72.3391 62.1948 72.6429 63.0493C72.9604 63.8902 73.4644 64.3107 74.1547 64.3107C75.4802 64.3107 76.1429 62.6017 76.1429 59.1837C76.1429 55.7929 75.4802 54.0975 74.1547 54.0975C73.4644 54.0975 72.9604 54.5179 72.6429 55.3589C72.3391 56.1862 72.1873 57.4612 72.1873 59.1837ZM81.3619 59.143C81.3619 62.249 80.7475 64.5887 79.5187 66.1621C78.2899 67.7219 76.4881 68.5018 74.1133 68.5018C71.8352 68.5018 70.0748 67.7015 68.8322 66.101C67.5896 64.487 66.9683 62.1677 66.9683 59.143C66.9683 52.9446 69.35 49.8453 74.1133 49.8453C76.4467 49.8453 78.2347 50.6524 79.4773 52.2664C80.7337 53.8669 81.3619 56.1591 81.3619 59.143Z"
      fill="#5D5FEF"
    />
  </symbol>
  <symbol
    fill="none"
    xmlns="http://www.w3.org/2000/svg"
    viewBox="0 0 89 102"
    id="icon-doud"
  >
    <path
      d="M73.5334 22.2254C72.1281 10.2694 62.0122 0.995392 49.7407 0.995392C37.4693 0.995392 27.3534 10.2694 25.9483 22.2254C17.4298 22.2254 10.5234 29.1671 10.5234 37.7303C10.5234 46.2935 17.4289 53.2352 25.9474 53.2352H73.5343C82.0527 53.2352 88.9582 46.2935 88.9582 37.7303C88.9582 29.1671 82.0518 22.2254 73.5334 22.2254Z"
      fill="#5D5FEF"
    />
    <path
      d="M66.072 69.2115H20.1719C17.8743 69.2115 16.0117 67.3489 16.0117 65.0512C16.0117 62.7536 17.8743 60.891 20.1719 60.891H66.072C68.3696 60.891 70.2322 62.7536 70.2322 65.0512C70.2322 67.3489 68.3696 69.2115 66.072 69.2115Z"
      fill="#5D5FEF"
    />
    <path
      d="M66.072 80.1026H20.1719C17.8743 80.1026 16.0117 78.2401 16.0117 75.9424C16.0117 73.6448 17.8743 71.7822 20.1719 71.7822H66.072C68.3696 71.7822 70.2322 73.6448 70.2322 75.9424C70.2322 78.2401 68.3696 80.1026 66.072 80.1026Z"
      fill="#5D5FEF"
    />
    <path
      d="M66.072 89.9573H20.1719C17.8743 89.9573 16.0117 88.0947 16.0117 85.7971C16.0117 83.4994 17.8743 81.6368 20.1719 81.6368H66.072C68.3696 81.6368 70.2322 83.4994 70.2322 85.7971C70.2322 88.0947 68.3696 89.9573 66.072 89.9573Z"
      fill="#5D5FEF"
    />
    <path
      fill-rule="evenodd"
      clip-rule="evenodd"
      d="M40.272 93.7537C40.2721 93.757 40.2723 93.7602 40.2725 93.7634C38.5589 93.9886 37.2018 95.3538 36.9793 97.077H17.3379C17.0617 97.077 16.8379 97.3008 16.8379 97.577C16.8379 97.8531 17.0617 98.077 17.3379 98.077H36.9793C37.2231 99.9649 38.8288 101.423 40.7734 101.423C42.7179 101.423 44.3236 99.9649 44.5674 98.077H63.7292C64.0053 98.077 64.2292 97.8531 64.2292 97.577C64.2292 97.3008 64.0053 97.077 63.7292 97.077H44.5674C44.3447 95.3526 42.9859 93.9867 41.2705 93.7629C41.2711 93.7523 41.2715 93.7416 41.2715 93.7308L41.2715 55.2692C41.2715 54.993 41.0476 54.7692 40.7715 54.7692C40.4953 54.7692 40.2715 54.993 40.2715 55.2692L40.2715 93.7308C40.2715 93.7385 40.2717 93.7461 40.272 93.7537ZM40.7734 100.423C42.3292 100.423 43.5994 99.1538 43.5994 97.5769C43.5994 96.0001 42.3292 94.7308 40.7734 94.7308C39.2175 94.7308 37.9473 96.0001 37.9473 97.5769C37.9473 99.1538 39.2175 100.423 40.7734 100.423Z"
      fill="white"
    />
    <path
      d="M63.111 24.4762L63.1629 24.9179H63.6076C71.8475 24.9179 78.5324 31.6333 78.5324 39.9227C78.5324 48.2122 71.8484 54.9276 63.6085 54.9276H16.0216C7.78173 54.9276 1.09766 48.2122 1.09766 39.9227C1.09766 31.6333 7.78259 24.9179 16.0225 24.9179H16.4672L16.5191 24.4762C17.8952 12.767 27.8021 3.68782 39.815 3.68782C51.8278 3.68782 61.7347 12.767 63.111 24.4762Z"
      fill="white"
      fill-opacity="0.6"
      stroke="white"
    />
    <path
      d="M68.2972 65.8463H40.7756C38.6516 65.8463 36.9297 64.1244 36.9297 62.0003C36.9297 59.8763 38.6516 58.1544 40.7756 58.1544H68.2972C70.4212 58.1544 72.1431 59.8763 72.1431 62.0003C72.1431 64.1244 70.4213 65.8463 68.2972 65.8463Z"
      fill="#FFFAFA"
      fill-opacity="0.6"
      stroke="white"
      stroke-width="0.5"
      stroke-linecap="round"
    />
    <path
      d="M68.2972 77.3843H40.7756C38.6516 77.3843 36.9297 75.6625 36.9297 73.5384C36.9297 71.4143 38.6516 69.6925 40.7756 69.6925H68.2972C70.4212 69.6925 72.1431 71.4143 72.1431 73.5384C72.1431 75.6625 70.4213 77.3843 68.2972 77.3843Z"
      fill="#FFFAFA"
      fill-opacity="0.6"
      stroke="white"
      stroke-width="0.5"
      stroke-linecap="round"
    />
    <path
      d="M68.2972 87.8032H40.7756C38.6516 87.8032 36.9297 86.0813 36.9297 83.9573C36.9297 81.8332 38.6516 80.1113 40.7756 80.1113H68.2972C70.4212 80.1113 72.1431 81.8332 72.1431 83.9573C72.1431 86.0813 70.4213 87.8032 68.2972 87.8032Z"
      fill="#FFFAFA"
      fill-opacity="0.6"
      stroke="white"
      stroke-width="0.5"
      stroke-linecap="round"
    />
    <path
      d="M20.6836 61.9274C22.3404 61.9274 23.6836 63.2706 23.6836 64.9274C23.6836 66.5843 22.3404 67.9274 20.6836 67.9274C19.0267 67.9274 17.6836 66.5843 17.6836 64.9274C17.6836 63.2706 19.0267 61.9274 20.6836 61.9274Z"
      fill="white"
      stroke="white"
      stroke-width="0.5"
      stroke-linecap="round"
    />
    <path
      d="M20.6836 72.9424C22.3404 72.9424 23.6836 74.2856 23.6836 75.9424C23.6836 77.5993 22.3404 78.9424 20.6836 78.9424C19.0267 78.9424 17.6836 77.5993 17.6836 75.9424C17.6836 74.2856 19.0267 72.9424 20.6836 72.9424Z"
      fill="white"
      stroke="white"
      stroke-width="0.5"
      stroke-linecap="round"
    />
    <path
      d="M20.6836 82.7971C22.3404 82.7971 23.6836 84.1402 23.6836 85.7971C23.6836 87.4539 22.3404 88.7971 20.6836 88.7971C19.0267 88.7971 17.6836 87.4539 17.6836 85.7971C17.6836 84.1402 19.0267 82.7971 20.6836 82.7971Z"
      fill="white"
      stroke="white"
      stroke-width="0.5"
      stroke-linecap="round"
    />
  </symbol>
  <symbol
    fill="none"
    xmlns="http://www.w3.org/2000/svg"
    viewBox="0 0 136 131"
    id="icon-shield"
  >
    <path
      d="M129.888 20.2066L129.893 20.2058C132.469 19.8148 134.687 21.7681 134.622 24.151C133.263 70.3958 116.467 96.729 100.115 111.507C91.9253 118.907 83.8232 123.431 77.7754 126.103C74.7519 127.439 72.2436 128.311 70.4972 128.848C69.6242 129.117 68.9419 129.301 68.4812 129.418C68.2744 129.471 68.1123 129.509 67.9977 129.536C67.8831 129.509 67.721 129.471 67.5141 129.418C67.0535 129.301 66.3712 129.116 65.4981 128.847C63.7518 128.31 61.2434 127.437 58.2198 126.1C52.172 123.425 44.0698 118.899 35.8805 111.497C19.5274 96.7156 2.7314 70.382 1.37248 24.1499C1.30848 21.7676 3.52625 19.8149 6.10203 20.2058L6.10731 20.2066C17.9725 21.9426 45.1781 23.1931 64.988 2.82959L64.9921 2.82534C66.6136 1.13879 69.409 1.13879 71.0305 2.82535L71.0341 2.82907C90.8166 23.1933 118.023 21.9425 129.888 20.2066Z"
      fill="white"
      fill-opacity="0.6"
      stroke="white"
      stroke-width="2"
    />
    <ellipse
      cx="66.6903"
      cy="118.265"
      rx="4.26841"
      ry="4.0838"
      fill="#522C97"
    />
    <ellipse
      cx="93.6708"
      cy="101.431"
      rx="4.26841"
      ry="4.0838"
      fill="#522C97"
    />
    <ellipse
      rx="4.26841"
      ry="4.0838"
      transform="matrix(-1 0 0 1 41.3312 101.431)"
      fill="#522C97"
    />
    <ellipse cx="109.813" cy="76.527" rx="4.26841" ry="4.0838" fill="#522C97" />
    <ellipse
      rx="4.26841"
      ry="4.0838"
      transform="matrix(-1 0 0 1 25.1886 76.527)"
      fill="#522C97"
    />
    <ellipse cx="118.35" cy="42.8599" rx="4.26841" ry="4.0838" fill="#522C97" />
    <ellipse
      rx="4.26841"
      ry="4.0838"
      transform="matrix(-1 0 0 1 16.6515 42.8599)"
      fill="#522C97"
    />
    <path
      d="M82.9511 61.6326C82.6657 60.7256 82.3193 59.9362 81.9126 59.2659C81.5061 58.5949 80.9238 57.9404 80.1647 57.3001C79.4066 56.6603 78.7245 56.1449 78.1198 55.7532C77.5154 55.3611 76.6851 54.9227 75.6295 54.4375C74.5748 53.9524 73.7391 53.5915 73.1239 53.3541C72.508 53.117 71.617 52.792 70.4515 52.3793C69.4181 52.0082 68.6487 51.7244 68.1425 51.5285C67.6369 51.3324 66.972 51.054 66.1474 50.6927C65.3231 50.332 64.7074 50.012 64.3005 49.7336C63.8938 49.4553 63.4596 49.1149 62.9978 48.7126C62.5359 48.3103 62.2117 47.8822 62.0246 47.4283C61.8381 46.9743 61.7445 46.479 61.7445 45.9426C61.7445 44.5399 62.4039 43.3944 63.7231 42.5075C65.0425 41.6206 66.7468 41.1769 68.8358 41.1769C69.7588 41.1769 70.6998 41.2954 71.6557 41.5329C72.6115 41.7704 73.4306 42.0379 74.1123 42.3373C74.7946 42.6367 75.4375 42.9669 76.0424 43.3277C76.6471 43.6889 77.0757 43.9621 77.3288 44.1478C77.5817 44.3336 77.7419 44.4573 77.8072 44.5193C78.0934 44.7256 78.3895 44.7976 78.6974 44.736C79.0271 44.7154 79.2802 44.5501 79.4565 44.2409L82.1285 39.7224C82.3922 39.3099 82.3377 38.9178 81.9636 38.5462C81.8315 38.4224 81.6672 38.2782 81.4679 38.113C81.2706 37.9478 80.8417 37.6487 80.1815 37.2152C79.522 36.782 78.8239 36.3951 78.0878 36.0547C77.3509 35.7145 76.3941 35.3687 75.2176 35.0181C74.0419 34.667 72.8267 34.43 71.5731 34.3063V28.8591C71.5731 28.5704 71.4743 28.333 71.277 28.1472C71.0792 27.9619 70.8262 27.8687 70.5179 27.8687H66.065C65.7792 27.8687 65.5319 27.9666 65.323 28.1627C65.1141 28.3588 65.0097 28.5908 65.0097 28.8591V34.4299C61.5575 35.0486 58.754 36.431 56.5992 38.5768C54.4446 40.7227 53.3669 43.2188 53.3669 46.0664C53.3669 46.9122 53.4607 47.7168 53.6476 48.4799C53.8343 49.2436 54.0653 49.9296 54.3402 50.5382C54.615 51.1472 55.0054 51.7453 55.5111 52.3335C56.0167 52.9214 56.4951 53.427 56.9457 53.8498C57.3966 54.2724 57.9848 54.711 58.7102 55.1648C59.436 55.619 60.0572 55.9855 60.574 56.2638C61.091 56.5413 61.778 56.8622 62.6353 57.2224C63.4928 57.5837 64.1692 57.8568 64.6639 58.0429C65.1587 58.2284 65.8348 58.4866 66.6926 58.816C67.8798 59.2493 68.7595 59.5847 69.3311 59.8221C69.9032 60.0595 70.6286 60.3895 71.5086 60.8125C72.3878 61.2351 73.0307 61.622 73.4378 61.9729C73.8446 62.3238 74.2127 62.7571 74.5428 63.2728C74.8728 63.7884 75.0381 64.3352 75.0381 64.9132C75.0381 66.5432 74.362 67.8015 73.0093 68.688C71.6573 69.5754 70.0901 70.019 68.3093 70.019C67.4965 70.019 66.6823 69.937 65.8691 69.772C63.0106 69.2349 60.3392 67.9453 57.8545 65.9029L57.7886 65.841C57.5906 65.6146 57.3266 65.5216 56.9971 65.5631C56.6453 65.6043 56.3923 65.7282 56.2385 65.9349L52.8412 70.1127C52.5113 70.5252 52.5336 70.9481 52.9073 71.3814C53.0174 71.5053 53.2098 71.6914 53.4845 71.9386C53.7599 72.1867 54.2712 72.5729 55.0184 73.1001C55.7658 73.6265 56.5794 74.121 57.4591 74.5858C58.3387 75.0498 59.4544 75.5087 60.8069 75.9628C62.1594 76.4161 63.5608 76.7358 65.0121 76.9214V82.3373C65.0121 82.606 65.1167 82.8378 65.3254 83.034C65.5344 83.2303 65.7816 83.3279 66.0674 83.3279H70.5203C70.8286 83.3279 71.0816 83.2352 71.2793 83.0498C71.4769 82.8643 71.5754 82.6269 71.5754 82.3375V76.9215C75.0721 76.3851 77.914 74.9769 80.1016 72.6969C82.2893 70.417 83.3835 67.6986 83.3835 64.5421C83.3824 63.5107 83.2397 62.541 82.9511 61.6326Z"
      fill="#FF7777"
    />
  </symbol>
  <symbol
    fill="none"
    xmlns="http://www.w3.org/2000/svg"
    viewBox="0 0 109 98"
    id="icon-up"
  >
    <path
      d="M89.2754 69.2666V17.2757C89.2754 15.2312 90.9328 13.5738 92.9773 13.5738C95.0217 13.5738 96.6791 15.2312 96.6791 17.2757V69.2666C96.6791 71.3111 95.0217 72.9685 92.9773 72.9685C90.9328 72.9685 89.2754 71.3111 89.2754 69.2666Z"
      fill="#5D5FEF"
    />
    <path
      d="M74.8711 69.2666V40.1198C74.8711 38.0753 76.5285 36.4179 78.573 36.4179C80.6174 36.4179 82.2748 38.0753 82.2748 40.1198V69.2666C82.2748 71.3111 80.6174 72.9685 78.573 72.9685C76.5285 72.9685 74.8711 71.3111 74.8711 69.2666Z"
      fill="#5D5FEF"
    />
    <path
      d="M60.4668 69.2666V37.7566C60.4668 35.7121 62.1242 34.0547 64.1687 34.0547C66.2131 34.0547 67.8705 35.7121 67.8705 37.7566V69.2666C67.8705 71.3111 66.2131 72.9685 64.1687 72.9685C62.1242 72.9685 60.4668 71.3111 60.4668 69.2666Z"
      fill="#5D5FEF"
    />
    <path
      d="M46.0625 69.2666V27.201C46.0625 25.1566 47.7199 23.4992 49.7644 23.4992C51.8088 23.4992 53.4662 25.1566 53.4662 27.201V69.2666C53.4662 71.3111 51.8088 72.9685 49.7644 72.9685C47.7199 72.9685 46.0625 71.3111 46.0625 69.2666Z"
      fill="#5D5FEF"
    />
    <path
      d="M31.6582 69.2666V57.9133C31.6582 55.8688 33.3156 54.2114 35.3601 54.2114C37.4046 54.2114 39.0619 55.8688 39.0619 57.9133V69.2666C39.0619 71.3111 37.4046 72.9685 35.3601 72.9685C33.3156 72.9685 31.6582 71.3111 31.6582 69.2666Z"
      fill="#5D5FEF"
    />
    <path
      d="M2.38672 63L35.6965 36.0769H52.8272L86.137 2.4231M86.137 2.4231V18.7692M86.137 2.4231L70.9097 4.34617"
      stroke="white"
      stroke-opacity="0.6"
      stroke-width="4"
      stroke-linecap="round"
    />
    <path
      d="M86.1363 54.2114C97.8936 54.2114 107.425 63.7427 107.425 75.5C107.425 87.2574 97.8936 96.7886 86.1363 96.7886C74.3789 96.7886 64.8477 87.2574 64.8477 75.5C64.8477 63.7427 74.3789 54.2114 86.1363 54.2114Z"
      fill="white"
      fill-opacity="0.6"
      stroke="white"
      stroke-width="2"
      stroke-linecap="round"
    />
    <path
      d="M84.2324 61.795V77.1405"
      stroke="white"
      stroke-width="2"
      stroke-linecap="round"
    />
    <path
      d="M84.2324 78.1358L95.2324 78.1358"
      stroke="white"
      stroke-width="2"
      stroke-linecap="round"
    />
  </symbol>
  <symbol
    fill="none"
    xmlns="http://www.w3.org/2000/svg"
    viewBox="0 0 112 131"
    id="icon-user"
  >
    <path
      d="M68.8713 44.6111C81.1027 44.6111 91.0181 34.6957 91.0181 22.4644C91.0181 10.2331 81.1027 0.317627 68.8713 0.317627C56.64 0.317627 46.7246 10.2331 46.7246 22.4644C46.7246 34.6957 56.64 44.6111 68.8713 44.6111Z"
      fill="#FF42B3"
    />
    <path
      d="M68.8714 55.6845C46.7022 55.6845 28.7305 73.6562 28.7305 95.8254H109.012C109.012 73.6562 91.0407 55.6845 68.8714 55.6845Z"
      fill="#FF42B3"
    />
    <path
      d="M62.5982 22.4642C62.5982 34.4194 52.9066 44.111 40.9514 44.111C28.9963 44.111 19.3047 34.4194 19.3047 22.4642C19.3047 10.5091 28.9963 0.817505 40.9514 0.817505C52.9066 0.817505 62.5982 10.5091 62.5982 22.4642Z"
      fill="white"
      fill-opacity="0.6"
      stroke="white"
    />
    <path
      d="M80.5894 95.3254H1.31364C1.5814 73.6627 19.2253 56.1844 40.9515 56.1844C62.6777 56.1844 80.3216 73.6627 80.5894 95.3254Z"
      fill="white"
      fill-opacity="0.6"
      stroke="white"
    />
    <rect
      x="1.81055"
      y="107.852"
      width="108.31"
      height="21.951"
      rx="10.9755"
      stroke="white"
      stroke-width="2"
    />
    <path
      d="M95.5179 113.025C98.7228 113.025 101.321 115.623 101.321 118.828C101.321 122.033 98.7228 124.631 95.5179 124.631C92.3129 124.631 89.7148 122.033 89.7148 118.828C89.7148 115.623 92.3129 113.025 95.5179 113.025Z"
      fill="white"
      stroke="white"
      stroke-width="0.5"
      stroke-linecap="round"
    />
  </symbol>
</svg>
